<svg xmlns="http://www.w3.org/2000/svg" viewBox="0 0 68 68" width="34" height="34" fill="#63d1bb"><path d="M.6 27.4c-.8 4.1-.8 8.4 0 12.6l8.2-6.4-8.2-6.2zM48.8 2.4a34.4 34.4 0 00-30.5.8l15 11.3 15.5-12zM67.8 25.6l-9.6 7.5 9.8 7.4c1-4.9 1-10-.2-14.9zM18.4 64c9.7 5.2 21.5 5.4 31.5.3L33.7 52.2 18.4 64zM15.8 28.1L3.4 18.8c-.7 1.3-1.2 2.7-1.7 4.1l10.6 8 3.5-2.8zM37.2 49.5l16.7 12.4a36 36 0 003.4-2.7L40.7 46.7l-3.5 2.8zM22.8 22.7L8 11.6c-1 1-1.8 2.2-2.5 3.4l13.8 10.4 3.5-2.7zM44.2 44l16.2 12.1c1-1 1.8-2.2 2.6-3.4L47.7 41.3 44.2 44zM29.8 17.2L14.4 5.7l-1.2.8-2.2 2 15.3 11.4 3.5-2.7zM51.2 38.5l14 10.5c.6-1.3 1.2-2.7 1.6-4l-12.1-9.2-3.5 2.8zM52.9 4.7L1.8 44.5c.4 1.4 1 2.8 1.6 4.1l53-41.3c-1-1-2.3-1.8-3.5-2.6zM61.5 12.5a37 37 0 00-1.9-2.2l-54 42A37.8 37.8 0 008 55.9l54.2-42.2-.8-1.1zM64.6 17.3L11.1 58.9c1 1 2.2 2 3.4 2.8l52-40.5-1.9-4z"/></svg>
