<svg xmlns="http://www.w3.org/2000/svg" width="58" height="34"><path fill="#fff" d="M1121 0c-14 0-14 14-28 14-15 0-15-14-29-14-15 0-15 14-29 14s-14-14-29-14c-14 0-14 14-28 14-15 0-15-14-29-14-15 0-15 14-29 14S906 0 891 0c-14 0-14 14-28 14-15 0-15-14-29-14-15 0-15 14-29 14S791 0 776 0c-14 0-14 14-28 14-15 0-15-14-29-14-15 0-15 14-29 14S676 0 661 0c-14 0-14 14-28 14-15 0-15-14-29-14-15 0-15 14-29 14S561 0 546 0c-14 0-14 14-28 14-15 0-15-14-29-14-15 0-15 14-29 14S446 0 431 0c-14 0-14 14-28 14-15 0-15-14-29-14-15 0-15 14-29 14S331 0 316 0c-14 0-14 14-28 14-15 0-15-14-29-14-15 0-15 14-29 14S216 0 201 0c-14 0-14 14-28 14-15 0-15-14-29-14-15 0-15 14-29 14S101 0 86 0C72 0 72 14 58 14 43 14 43 0 29 0 14 0 14 14 0 14v20h1150V14c-14 0-14-14-29-14z"/></svg>