<svg xmlns="http://www.w3.org/2000/svg" viewBox="0 0 64 44" width="32" height="22">
  <path fill-rule="evenodd" fill="#63d1bb" d="M52 20L64 12L64 44L52 36L52 20ZM48 20L48 36C48 40.42 44.42 44 40 44L8 44C3.58 44 0 40.42 0 36L0 20C0 15.58 3.58 12 8 12L28 12C28 9.79 29.79 8 32 8L32 4L10 4C8.89 4 8 3.11 8 2C8 0.89 8.89 0 10 0L34 0C35.11 0 36 0.89 36 2L36 8C38.21 8 40 9.79 40 12C44.42 12 48 15.58 48 20ZM24 20L8 20L8 36L24 36L24 20ZM40 22C40 20.89 39.11 20 38 20L30 20C28.89 20 28 20.89 28 22C28 23.11 28.89 24 30 24L38 24C39.11 24 40 23.11 40 22Z"/>
</svg>
