<svg xmlns="http://www.w3.org/2000/svg" viewBox="0 0 120 120" width="60" height="60"><style>tspan { white-space:pre }.shp0 { fill: #13907f } </style><g ><path fill-rule="evenodd" class="shp0" d="M0 41.42L54.88 73.3L54.88 119.99L0 88.12L0 41.42ZM115.06 32.81L60.36 64.58L5.29 32.6L17.2 25.7L17.2 30.54C17.2 34.17 24.12 37.12 32.65 37.12C41.19 37.12 48.1 34.17 48.1 30.54L48.1 22.42L48.06 22.42C47.54 25.85 40.85 28.57 32.65 28.57C24.12 28.57 17.2 25.62 17.2 22C17.2 18.36 24.12 15.42 32.65 15.42C33.37 15.42 34.07 15.46 34.76 15.49L44.37 9.91L44.37 15.88C44.37 16.76 44.78 17.59 45.5 18.35C46.09 18.72 46.58 19.12 46.97 19.52C49.74 21.29 54.47 22.46 59.83 22.46C68.37 22.46 75.28 19.51 75.28 15.88L75.28 9.71L85.23 15.48C85.88 15.44 86.55 15.42 87.23 15.42C95.78 15.42 102.69 18.36 102.69 22C102.69 25.62 95.78 28.57 87.23 28.57C79.03 28.57 72.35 25.85 71.83 22.42L71.78 22.42L71.78 30.54C71.78 34.17 78.7 37.12 87.23 37.12C95.78 37.12 102.69 34.17 102.69 30.54L102.69 25.63L115.06 32.81ZM75.41 37.85L75.36 37.85C74.84 41.28 68.15 44 59.95 44C51.75 44 45.06 41.28 44.54 37.85L44.49 37.85L44.49 45.97C44.49 49.6 51.42 52.54 59.95 52.54C68.49 52.54 75.41 49.6 75.41 45.97L75.41 37.85ZM120 41.84L120 88.12L65.11 120L65.11 73.71L120 41.84ZM44.37 7.33C44.37 3.71 51.29 0.76 59.83 0.76C68.37 0.76 75.28 3.71 75.28 7.33C75.28 10.97 68.37 13.91 59.83 13.91C51.29 13.91 44.37 10.97 44.37 7.33Z" /></g></svg>
