<svg xmlns="http://www.w3.org/2000/svg" viewBox="0 0 80 124" width="40" height="62"><style>tspan { white-space:pre }.shp0 { fill: #13907f } </style><g ><g ><path class="shp0" d="M30.36 75.09C29.78 77.03 29.87 79.48 30.41 82.37C31.4 87.64 33.78 94.45 35.13 101.71L45.25 101.71C46.64 94.43 49.15 87.61 50.19 82.35C50.77 79.46 50.85 77.03 50.27 75.11C49.72 73.31 48.49 71.88 46.23 70.51L34.24 70.51C32.09 71.86 30.89 73.29 30.36 75.09Z" /><path class="shp0" d="M54.02 115.08L26.42 115.08C23.83 115.08 21.82 117.04 21.82 119.54L21.82 124L26.42 124L54.02 124L58.62 124L58.62 119.54C58.62 117.04 56.6 115.08 54.02 115.08Z" /><path class="shp0" d="M68.28 3.64L44.82 3.64C44.82 1.15 42.79 -0.82 40.22 -0.82C37.65 -0.82 35.62 1.15 35.62 3.64L12.15 3.64L0 54.67C1.59 53.75 3.18 52.68 5.26 52.68C7.98 52.68 9.75 54.32 11.11 55.44C12.48 56.55 13.43 57.13 14.01 57.13C14.59 57.14 15.54 56.56 16.91 55.46C18.27 54.36 20.04 52.75 22.74 52.75C25.43 52.75 27.21 54.36 28.58 55.45C29.94 56.55 30.9 57.13 31.48 57.13C31.77 57.13 32.15 56.99 32.64 56.7C33.12 56.42 33.7 56 34.38 55.45C35.4 54.63 36.66 53.52 38.36 53.01C38.93 52.84 39.55 52.74 40.22 52.74C42.91 52.74 44.69 54.35 46.06 55.45C47.42 56.55 48.38 57.13 48.96 57.13C49.54 57.13 50.49 56.54 51.85 55.43C53.22 54.33 54.99 52.7 57.7 52.7C60.41 52.7 62.18 54.33 63.54 55.44C64.22 55.99 64.8 56.42 65.28 56.7C65.76 56.99 66.15 57.13 66.43 57.13C67.01 57.13 67.96 56.54 69.32 55.42C70.68 54.31 72.45 52.66 75.17 52.66C77.26 52.66 78.85 53.72 80.44 54.65L68.28 3.64Z" /><path class="shp0" d="M47.05 106.17L33.32 106.17C32.01 106.17 31.02 107.13 31.02 108.4C31.02 109.67 32.01 110.63 33.32 110.63L47.12 110.63C48.43 110.63 49.42 109.67 49.42 108.4C49.42 107.13 48.43 106.17 47.12 106.17L47.05 106.17Z" /><path class="shp0" d="M40.22 57.2C39.93 57.2 39.54 57.35 39.06 57.63C38.75 57.81 38.32 58.15 37.92 58.45L37.92 65.91L42.52 65.91L42.52 58.45C41.51 57.69 40.7 57.2 40.22 57.2Z" /></g></g></svg>
