<svg xmlns="http://www.w3.org/2000/svg" viewBox="0 0 296 146" width="296" height="146"><style>tspan { white-space:pre }.shp0 { fill: #000000 } .shp1 { fill: #ffffff } </style><g ><g ><g ><path fill-rule="evenodd" class="shp0" d="M289.99 65.65C285.83 68.62 281.31 71 276.75 73.29C276.33 77.64 275.49 82.04 274.71 86.38C274.46 88.15 274.16 89.93 273.83 91.7C273.46 94.16 273.19 96.59 273.09 98.97C273.06 99.7 272.53 100.3 271.8 100.69C270.26 106.53 268.3 112.26 265.91 117.8C265.9 117.83 265.88 117.85 265.86 117.89C266.08 117.89 266.3 117.91 266.51 117.95C267.59 118.17 268.04 119.2 267.04 119.92C254.48 129 238.06 123.51 223.93 123.39C223.36 123.39 222.57 123.17 222.29 122.71C214.66 122.35 207.05 121.8 199.44 121.3C198.85 121.26 198.2 121.01 197.86 120.58C196.29 120.45 194.73 120.3 193.16 120.16C193.16 120.16 193.16 120.16 193.15 120.16C192.72 120.19 192.35 120.15 192.04 120.07C190.61 119.96 189.18 119.85 187.75 119.78C187.61 119.78 187.48 119.76 187.36 119.74C186.64 119.77 185.94 119.6 185.4 119.08C185.18 118.88 184.97 118.67 184.77 118.45C169.71 118.39 154.65 118.71 139.6 119.09C130.02 119.66 120.44 120.25 110.86 120.71C104.47 121.91 98.03 122.73 91.49 122.1C90.83 122.04 90.29 121.8 90 121.43C82.52 121.57 75.05 121.56 67.57 121.33C65.83 124.43 64.58 127.77 63.36 131.12C62.77 132.74 57.23 133.43 57.76 131.99C59.01 128.54 60.33 125.18 62.1 122C54.34 122.65 46.29 123.58 39.87 120.11C40.08 120.54 39.96 121.08 39.46 121.57C37.83 123.19 36.03 124.64 34.4 126.25C33.43 127.2 31.7 127.63 30.4 127.32C29.2 127.04 28.97 126.01 29.82 125.17C31.46 123.55 33.25 122.11 34.89 120.49C35.79 119.6 37.37 119.17 38.63 119.38C36.71 118.12 34.95 116.4 33.42 114.08C32.43 112.58 34.12 111.19 35.89 110.85C35.56 108.67 35.83 106.15 36.36 103.88C36.25 103.05 36.14 102.21 36.03 101.38C35.06 96.07 34.05 90.77 33.68 85.39C32.82 78.79 32.28 72.18 32.75 65.49C32.79 64.83 33.17 64.29 33.72 63.89C33.77 61.07 33.95 58.25 34.33 55.43C34.42 54.71 35.05 54.13 35.85 53.75C35.85 53.64 35.85 53.53 35.85 53.42C35.82 52.75 35.82 52.07 35.87 51.39C35.71 51.25 35.58 51.07 35.52 50.85C34.73 48 34.43 44.75 35.04 41.87C34.89 41.94 34.77 42 34.71 42.02C33.67 42.43 32.05 42.84 31.03 42.16C27.59 39.87 24.15 37.61 20.47 35.73C18.44 34.7 23.66 32.58 25.04 33.28C28.75 35.17 32.25 37.4 35.71 39.7C36.53 37.76 37.9 36.13 40 35.13C39.86 34.04 41.08 32.66 42.93 32.61C51.32 32.37 59.56 33.7 67.92 34.09C71.77 34.27 75.65 34.29 79.53 34.23C80.07 33.95 80.63 33.69 81.19 33.45C81.67 33.26 82.39 33.15 83.09 33.18C81.14 29.23 80.24 24.21 79.92 21.22C79.56 17.79 79.84 14.32 82.26 11.61C84.88 8.69 88.55 7.07 92.35 6.32C100.64 4.68 109.59 7.03 114.83 13.91C117.48 17.39 119.53 21.31 121.08 25.43C122.63 24.24 125.48 24.1 125.74 25.95C125.98 27.64 126.4 29.26 126.98 30.84C128.07 30.67 129.16 30.5 130.25 30.32C130.1 29.37 129.95 28.42 129.84 27.46C129.68 26.18 131.68 25.21 133.34 25.05C133.85 24.68 134.45 24.44 135.05 24.27C135.08 24.26 135.12 24.26 135.16 24.25C134.72 23.01 134.44 21.73 134.12 20.45C133.45 17.74 139.1 16.24 139.77 18.94C140.19 20.66 140.56 22.4 141.33 24C141.38 24.12 141.41 24.23 141.43 24.34C143.1 23.59 145.6 23.8 145.64 25.68C145.7 28.32 146.31 30.85 147.07 33.34C147.4 33.4 147.72 33.46 148.05 33.51C147.51 32.33 148.74 30.56 150.85 30.56C151.51 30.56 152.01 30.68 152.39 30.88C152.39 30.46 152.39 30.04 152.39 29.62C152.39 29 152.68 28.49 153.14 28.1C151.61 28.85 149.4 28.73 148.93 27.08C148.12 24.25 147.37 21.42 146.98 18.5C146.59 15.64 152.25 14.2 152.63 16.99C153.02 19.91 153.77 22.74 154.58 25.56C154.81 26.4 154.46 27.12 153.84 27.64C155.54 26.82 158.13 27.17 158.13 29.26C158.13 30.28 158.13 31.3 158.13 32.32C158.31 32.31 158.5 32.3 158.67 32.31C158.3 28.76 158.29 25.19 158.29 21.62C158.28 19.48 163.93 18.43 163.93 20.11C163.93 22.73 163.94 25.35 164.09 27.96C164.48 27.89 164.88 27.86 165.27 27.87C165.45 27.88 166.27 27.93 166.27 28.29C166.27 28.42 166.27 28.55 166.27 28.68C166.27 29.09 165.93 29.33 165.61 29.54C165.2 29.8 164.73 30.01 164.25 30.16C164.36 31.36 164.51 32.55 164.71 33.74C164.73 33.84 164.72 33.94 164.71 34.04C166.06 33.79 167.37 33.93 167.41 34.7L168.24 34.8C168.69 34.8 169.13 34.81 169.59 34.81C169.59 34.5 169.59 34.19 169.59 33.87C169.49 33.88 169.39 33.89 169.29 33.9C168.83 33.91 168.2 33.9 167.82 33.58C167.5 33.31 167.62 32.9 167.87 32.64C167.91 32.6 167.94 32.56 167.98 32.51C168 32.46 168.01 32.41 168.02 32.36C168.04 32.17 168.12 32.01 168.26 31.87C168.39 31.75 168.52 31.64 168.64 31.52C168.93 31.31 169.25 31.13 169.59 30.99C169.59 29.95 169.59 28.9 169.59 27.85C169.59 26.27 175.23 25.48 175.23 26.34C175.23 26.98 175.23 27.62 175.23 28.26C175.62 28.31 175.95 28.43 176.16 28.61C176.2 28.55 176.22 28.47 176.26 28.41C176.39 28.13 176.78 27.91 177.11 27.75C177.78 25.32 178.5 22.9 179.35 20.51C179.93 18.86 185.49 18.15 184.96 19.66C183.37 24.12 182.21 28.71 181.06 33.3C180.99 33.57 180.79 33.81 180.5 34.03C180.45 34.24 180.41 34.44 180.37 34.65C180.5 34.65 180.63 34.64 180.76 34.64C180.79 34.52 180.82 34.41 180.85 34.3C180.97 33.8 181.21 33.38 181.54 33.03C181.73 32.37 181.94 31.72 182.19 31.08C182.88 29.3 186.49 28.83 187.48 30.15C189.68 19.29 194.38 9.11 203.9 3.87C208.18 1.52 213.1 0.44 217.97 0.6C222.36 0.75 227.79 1.69 230.17 5.9C234.33 13.28 230.9 22.89 228.17 30.43C231.29 30.04 234.42 29.63 237.54 29.22C238.1 29.15 240.29 29.03 239.92 30.2C239.86 30.38 239.76 30.55 239.64 30.7C243.7 30.55 247.77 30.52 251.79 30.86C252.73 28.89 254.25 27.44 255.98 26.13C256.98 25.37 258.85 25.04 259.99 25.66C261.24 26.33 260.31 27.49 259.55 28.06C259.47 28.12 259.42 28.16 259.38 28.19C259.35 28.22 259.31 28.25 259.24 28.31C259.12 28.42 258.99 28.52 258.87 28.64C258.57 28.92 258.27 29.2 258.01 29.52C257.7 29.89 257.18 30.85 256.91 31.52C258.84 31.86 260.75 32.33 262.63 32.93C262.63 32.92 262.63 32.92 262.64 32.92C262.73 32.84 262.85 32.89 262.98 33.04C263.75 33.29 264.51 33.56 265.27 33.86C266.63 34.41 266.67 35.28 266.1 36.05C266.49 36.1 266.75 36.24 266.82 36.48C266.96 36.97 267.12 37.46 267.28 37.95C267.63 38.2 267.96 38.47 268.27 38.78C269.62 38.16 271.45 37.7 272.12 38.23C277.44 42.43 276.88 50.67 276.13 56.68C276.04 57.35 275.94 58.01 275.83 58.68C276.78 62 277.09 65.44 277.02 68.93C280.22 67.26 283.37 65.49 286.33 63.38C288.43 61.89 293.13 63.42 289.99 65.65ZM176.08 31.67C176 31.67 175.93 31.67 175.86 31.67C175.7 32.29 175.55 32.91 175.4 33.53C175.48 33.45 175.57 33.37 175.67 33.29C175.8 32.75 175.95 32.21 176.08 31.67Z" /><path class="shp0" d="M126.52 25.84C126.78 26.23 127.65 26.27 128.03 26.27C128.78 26.27 129.55 26.11 130.24 25.82C131.05 25.49 132.44 24.7 131.78 23.68C131.05 22.56 130.56 21.3 129.83 20.17C129.58 19.78 128.71 19.74 128.32 19.74C127.57 19.74 126.81 19.91 126.11 20.19C125.3 20.52 123.91 21.31 124.57 22.33C125.3 23.45 125.79 24.71 126.52 25.84Z" /><path class="shp0" d="M41.37 22.4C41.8 23.69 43.59 23.69 44.66 23.41C45.61 23.15 47.44 22.18 47.01 20.89C46.6 19.64 46.15 18.3 45.23 17.33C44.27 16.31 42.58 16.49 41.42 17.03C40.6 17.41 39.07 18.7 40.03 19.72C40.8 20.53 40.99 21.27 41.37 22.4Z" /><path class="shp0" d="M61.32 28.38C63.01 28.38 67.47 25.82 63.69 25.82C62.01 25.82 57.54 28.38 61.32 28.38Z" /><path class="shp0" d="M245.13 25.13C245.82 25.28 246.56 25.2 247.23 25.02C247.88 24.84 248.63 24.55 249.12 24.06C249.83 23.35 250.57 22.6 251.04 21.71C251.25 21.31 251.39 20.91 251.03 20.53C250.65 20.14 250.02 20.04 249.5 20.03C248.75 20.01 247.98 20.18 247.29 20.47C246.79 20.68 246.05 21.06 245.78 21.58C245.58 21.95 245.34 22.28 245.08 22.6C245.06 22.62 245.05 22.64 245.03 22.66C245.01 22.68 244.99 22.7 244.98 22.72C244.85 22.85 244.71 22.99 244.59 23.12C244.27 23.43 243.89 23.85 244.03 24.35C244.15 24.83 244.7 25.04 245.13 25.13Z" /><path class="shp0" d="M271.72 35.97C272.98 35.85 274.51 35.48 275.51 34.65C278.15 32.44 280.71 30.15 282.76 27.36C283.33 26.58 280.66 26.88 280.52 26.9C279.45 27.1 277.89 27.45 277.2 28.39C275.3 30.99 272.87 33.09 270.42 35.14C269.42 35.97 271.3 36.01 271.72 35.97Z" /><path class="shp0" d="M293.48 90.13C290.23 90.13 286.98 90.13 283.74 90.13C282.5 90.13 280.79 91.06 280.63 92.4C280.45 93.88 282.13 94.25 283.23 94.25C286.48 94.25 289.73 94.25 292.97 94.25C294.21 94.25 295.92 93.31 296.09 91.97C296.27 90.49 294.58 90.13 293.48 90.13Z" /><path class="shp0" d="M114.04 122.15C113.05 122.31 111.22 122.75 110.76 123.82C109.69 126.36 108.8 128.96 108.04 131.61C107.61 133.08 113.18 132.28 113.63 130.71C114.4 128.05 115.28 125.46 116.36 122.91C116.8 121.86 114.43 122.09 114.04 122.15Z" /><path class="shp0" d="M123.2 127.34C122.51 127.33 121.81 127.46 121.15 127.64C120.48 127.82 119.81 128.05 119.21 128.41C118.93 128.57 118.53 128.8 118.53 129.19C118.53 129.42 118.52 129.65 118.49 129.88C118.44 130.08 118.37 130.28 118.24 130.45C118.25 130.44 118.26 130.43 118.27 130.42C118.14 130.59 118.05 130.78 118.3 130.93C118.69 131.16 119.31 131.09 119.73 131.05C120.47 130.98 121.22 130.8 121.92 130.55C122.41 130.38 123.15 130.13 123.51 129.73C123.81 129.41 124 129.16 124.08 128.73C124.15 128.38 124.18 128.04 124.18 127.67C124.18 127.34 123.34 127.34 123.2 127.34Z" /><path class="shp0" d="M233.3 134.69C232.6 133.32 227.22 135.35 227.66 136.2C229.35 139.48 231.54 142.45 233.5 145.55C234.38 146.93 239.58 144.73 239.15 144.04C237.19 140.93 234.99 137.96 233.3 134.69Z" /><path class="shp0" d="M241.49 130.01C240.9 128.84 239.36 128.89 238.24 129.18C237.54 129.37 235.27 130.38 235.84 131.52C236.62 133.08 237.4 134.64 238.18 136.2C238.77 137.38 240.32 137.33 241.43 137.03C242.13 136.84 244.4 135.83 243.83 134.69C243.05 133.13 242.27 131.57 241.49 130.01Z" /><path class="shp0" d="M11.34 86.8C8.36 87.51 5.32 87.94 2.37 88.75C1.3 89.04 -0.31 90.03 0.05 91.38C0.42 92.73 2.31 92.8 3.38 92.51C6.33 91.7 9.37 91.28 12.35 90.55C13.43 90.3 15.02 89.25 14.67 87.92C14.3 86.55 12.42 86.54 11.34 86.8Z" /></g></g><g ><g ><path class="shp1" d="M87.5 80.8C87.34 75.38 86.48 70.01 86.55 64.58C86.6 60.19 87.33 55.68 85.82 51.47C85.91 51 86.01 50.52 86.1 50.04C86.49 47.93 79.5 49.05 78.4 50.98C77.71 51.54 77.36 52.22 77.65 52.91C77.72 53.08 77.79 53.26 77.85 53.43C76.53 59.9 74.69 66.16 72.56 72.43C71.75 74.83 70.77 77.17 69.94 79.56C68.77 77.33 67.58 75.13 66.63 72.74C63.86 65.81 61.36 58.81 57.98 52.14C58.36 49.06 51.51 49.38 50.16 52.21C48.53 55.63 48.74 59.08 49.28 62.73C49.88 66.85 49.99 70.9 50.04 75.07C50.14 83.09 50.76 91.1 50.88 99.12C50.17 99.91 49.95 100.9 50.7 101.9C51.02 102.33 51.43 102.67 51.85 103C53.68 104.46 58.92 103.22 58.91 100.44C58.88 92.12 58.28 83.81 58.06 75.5C58.04 74.68 58.02 73.87 58.01 73.05C58.13 73.34 58.24 73.64 58.36 73.93C59.65 77.16 61 80.31 62.77 83.32C64.52 86.3 65.4 89.5 66.4 92.76C66.02 93.2 65.79 93.69 65.94 94.19C65.86 94.55 66.08 94.78 66.44 94.91C67.73 96.02 70.16 95.47 71.51 94.9C72.09 94.66 72.64 94.38 73.17 94.05C73.87 93.62 74.96 92.67 74.64 91.71C74.58 91.52 74.53 91.33 74.47 91.14C75.42 88.58 75.9 85.92 76.42 83.21C76.97 80.33 78 77.6 79.03 74.87C79.14 76.12 79.25 77.37 79.35 78.62C79.76 83.77 79.41 88.85 79.36 94.01C79.34 95.71 79.47 97.3 79.8 98.98C79.94 99.67 80.54 102.63 80.37 102.79C79.14 103.92 79.49 105.32 81.15 105.68C82.99 106.09 85.35 105.47 86.74 104.19C89.16 101.95 88.01 98.45 87.47 95.63C86.55 90.9 87.65 85.61 87.5 80.8Z" /><path class="shp1" d="M104.38 82.16C104.24 78.15 102.84 74.37 102.82 70.31C102.8 65.66 103.19 61.04 102.51 56.41C102.3 54.95 94.32 56.62 94.6 58.53C95.23 62.79 95 67.07 94.93 71.36C94.85 75.48 95.87 79.22 96.4 83.27C96.94 87.42 96.23 91.66 96.7 95.81C96.92 97.76 98.22 101.35 96.88 103.04C96.03 104.11 99.84 103.73 100.02 103.7C101.57 103.41 103.63 102.91 104.66 101.6C105.98 99.93 105.06 96.71 104.77 94.83C104.13 90.67 104.54 86.36 104.38 82.16Z" /><path class="shp1" d="M137.34 75.46C133.18 69.84 125.46 73.89 120.06 72.35C117.28 71.56 117.25 67.77 117.26 65.5C117.26 62.62 117.03 59.98 116.7 57.13C116.47 55.01 116.66 52.85 118.21 51.27C118.5 50.98 119.94 50.59 119.84 50.59C120.56 50.46 121.21 50.43 122 50.4C125.12 50.26 131.31 50.87 130.11 55.41C129.57 57.45 137.37 56.28 137.94 54.12C140.38 44.84 123.23 46.63 118.39 47.91C113.93 49.1 109 51.64 108.75 56.79C108.63 59.25 109.3 61.59 109.41 64.03C109.53 66.83 109.01 69.63 109.99 72.34C112.17 78.36 121.13 75.52 125.69 75.86C133.45 76.44 131.13 86.9 131.23 91.77C131.28 94.37 133.61 98.69 131.66 100.87C130.45 102.2 127.66 102.28 126.02 102.42C124.38 102.55 121.58 103.05 120.49 101.49C118.48 98.63 120.67 93.82 120.24 90.54C120 88.67 112.04 90.35 112.34 92.66C113.03 97.96 109.51 105.05 117.19 105.96C122.11 106.55 127.66 105.64 132.32 104.09C134.74 103.29 136.98 102.19 138.87 100.47C140.96 98.58 140.27 95.74 139.71 93.32C138.34 87.43 141.19 80.65 137.34 75.46Z" /><path class="shp1" d="M172.31 75.08C172.07 67.46 170.92 59.92 170.89 52.28C170.87 48.3 162.89 49.65 162.9 52.97C162.93 60.26 163.9 67.44 164.28 74.7C164.29 74.85 164.29 74.99 164.3 75.14C160.37 75.11 156.43 75.5 152.49 75.64C152.9 66.29 151.26 57.02 151.62 47.67C151.66 46.5 143.8 47.49 143.71 49.79C143.37 58.82 144.9 67.79 144.62 76.82C144.5 81.13 144.13 85.43 144.1 89.74C144.08 91.95 144.45 94.15 144.76 96.33C145.06 98.34 145.74 101.03 145.13 103.02C144.65 104.58 152.32 103.61 152.92 101.62C154.02 98.04 152.48 93.47 152.11 89.84C151.75 86.36 152.03 82.78 152.28 79.25C156.37 78.98 160.47 78.65 164.55 79.22C164.73 82 164.94 84.78 165.2 87.57C165.41 89.9 165.56 92.23 165.59 94.58C165.63 96.64 165.88 99.62 165.15 101.56C163.59 105.71 171.5 105.38 172.66 102.3C174.08 98.53 173.67 93.83 173.43 89.86C173.13 84.92 172.47 80.02 172.31 75.08Z" /><path class="shp1" d="M206.48 84.11C204.59 78.54 201.7 73.66 199.19 68.37C201.21 64.44 203.26 60.5 205.1 56.49C206.78 52.84 208.02 48.78 211.32 46.21C212.48 45.31 212.43 44.4 210.8 44.29C209.04 44.17 206.64 44.68 205.21 45.79C202.21 48.13 200.32 50.96 198.75 54.4C196.88 58.54 194.93 62.61 192.88 66.66C192.73 66.96 192.57 67.26 192.42 67.56C191.43 68.2 190.84 69.1 191.13 70.11C189.54 73.27 187.9 76.41 186.09 79.42C185.49 68.25 184.16 57.1 183.77 45.92C183.68 43.36 175.75 44.95 175.86 48.04C176.35 61.9 178.32 75.73 178.46 89.59C178.43 89.62 178.39 89.65 178.36 89.69C177.76 90.31 177.98 90.68 178.47 90.9C178.47 94.43 178.35 97.97 178.05 101.51C177.09 103.01 178.98 103.8 180.23 103.8C180.3 103.8 180.36 103.8 180.43 103.8C181.92 103.8 185.73 103.1 185.91 101.05C186.3 96.81 186.42 92.58 186.38 88.35C189.59 84.89 192.21 81.03 194.57 76.98C196.1 79.97 197.56 82.98 198.58 86.23C200.32 91.76 203.22 96.85 204.9 102.4C206 106.05 213.89 103.89 212.8 100.29C211.13 94.73 208.36 89.6 206.48 84.11Z" /><path fill-rule="evenodd" class="shp1" d="M249.47 78.2C249.55 82.06 249.6 85.92 249.76 89.78C249.87 92.48 250.87 97.87 248.95 100.13C247.86 101.42 245.9 101.93 244.3 102.23C244.15 102.25 240.29 102.6 241.17 101.56C242.84 99.58 241.98 94.84 241.88 92.46C241.69 87.8 241.51 83.11 241.47 78.44C239.3 78.7 237.16 79.24 234.92 79.03C232.17 78.77 227.49 77.54 224.73 78.74C224.83 80.38 224.91 82.02 224.94 83.67C225.02 89.27 224.95 94.88 224.94 100.48C224.94 102.66 217.03 103.75 217.03 102.6C217.04 95.52 217.22 88.44 216.91 81.37C216.64 75.26 215.04 68.79 216.15 62.71C217.16 57.16 220.09 53.29 225.36 51.24C229.9 49.47 235.58 48.59 240.46 48.41C245.27 48.22 248.05 50 248.47 54.96C248.93 60.31 249.01 65.8 249.26 71.17C249.29 71.85 249.31 72.53 249.34 73.2C251.15 73.04 253.5 73.08 253.92 74.76C254.36 76.47 251.8 77.9 249.47 78.2ZM237.95 74.37C239.11 74.4 240.23 74.33 241.35 74.22C241.14 70.18 240.72 66.15 240.72 62.1C240.73 59.65 241.33 53.89 238.89 52.27C237.13 51.1 235.14 51.54 233.18 51.89C231.8 52.14 229.6 52.01 228.42 52.77C224.04 55.63 223.48 62.19 223.8 66.9C223.98 69.43 224.21 71.94 224.42 74.45C228.79 73.53 233.34 74.26 237.95 74.37Z" /><path class="shp1" d="M97.54 50.94C98.59 50.84 99.65 50.48 100.52 49.88C100.7 49.73 100.87 49.59 101.04 49.44C102.09 48.77 103 47.77 102.51 46.7C101.49 44.47 101.65 42.19 101.67 39.81C101.68 37.87 99.73 37.29 98.08 37.44C96.62 37.56 93.7 38.61 93.69 40.5C93.67 42.51 93.54 44.57 93.91 46.54C93.81 46.77 93.76 47.03 93.7 47.26C93.59 47.69 93.73 48.11 93.99 48.45C93.99 48.54 93.99 48.63 93.99 48.72C94 48.95 94.01 49.17 94.02 49.4C94.17 49.87 94.46 50.22 94.89 50.47C95.67 50.94 96.65 51.02 97.54 50.94Z" /></g></g></g></svg>