<svg xmlns="http://www.w3.org/2000/svg" viewBox="0 0 64 72" width="33" height="38"><path fill="#63d1bb" fill-rule="evenodd" d="M63.94 42.03A31.97 31.97 0 0131.97 74a31.97 31.97 0 0131.97-31.97zM14.33 24.27a8.86 8.86 0 013.8-16.88c1.87 0 3.59.57 5.03 1.56l-.07-.67a8.89 8.89 0 0117.76 0l-.07.67a8.89 8.89 0 0113.91 7.32 8.9 8.9 0 01-5.08 8 8.83 8.83 0 015.08 7.99 8.89 8.89 0 01-13.91 7.32l.07.67a8.89 8.89 0 01-17.76 0l.07-.67a8.89 8.89 0 01-13.91-7.32 8.83 8.83 0 015.08-7.99zm8.76 0a8.89 8.89 0 1017.77-.01 8.89 8.89 0 00-17.77.01zM31.97 74A31.98 31.98 0 010 42.03 31.97 31.97 0 0131.97 74z"/></svg>
