<svg xmlns="http://www.w3.org/2000/svg" width="30" height="56"><path fill="#231f20" fill-rule="evenodd" d="M19 12.1c-.6 2.1 0 4.5 0 6.8 1.9.6 4.2-1 6-.6 1.3.2 1.3 1.6 1.6 2.8 0 .7.2 1.8-.2 2.2 0 .8 0 1.5-.4 2-.3 1.3-.3 2.9-1 3.8-1.4.6-3.4.6-5.2.8.5 4.5.2 9.8.6 14.3V50c-.1.8.2 1.1.2 1.8.2.7-.4.8-.4 1.4-.6.4-1.5.9-2.4.4-1.2 1.4-3.8 1.5-5.6 2.4-1.6 0-3.5.2-4.5-.4v-1.8c0-.6 1 0 .8-1 .2-1-1.2-.4-1-1.4 0-.3 0-.6-.3-.6-.1-1.6.3-2.7.9-3.6-.6-1.4-.5-3.4-.4-5.4.1-.8-.5-.9-.5-1.6.5-3.5-.2-7.4 0-11.3-1.6-.2-3.5.3-4.5-.2 0 0 0-.2-.2-.2l-1.7-1-.8-3.2c0-1.2-.2-2.7.4-3.4 2.4-.2 4.8-.4 6.8-1l-.4-2.8c.2-3.9-.7-8 .4-11.1.2 0 .2-.3.2-.4C10 3 12.7.7 18 .8 19.3.4 21.4.7 23 .6l4.3 1c.6.3 1 .9 1.5 1.2 0 .4.6.4.6.8.3.1 0 .7.4.8-.1 2.2-.4 4.3-1.2 6-1.4.5-3.3.6-5.4.5-1.4.4-2.8.9-4.3 1.2zm-3.5.4c.2-.7.5-1.2.6-2 .5 0 .6-.6 1-.8 2-.6 3.8-1.5 6-2h3.1c-.1-1.2.5-1.7.4-3-2.9-1.2-8.7-.8-12.1-.3-1.3.7-2.6 1.5-3.8 2.4 0 .7-.8.9-.6 2 .3.5.5-.7 1-.4 0-.6.8-.4 1.3-.4-.1 2-1.2 3-1.5 5-.3.3-.5.9-1 1.1-.1 2 .3 4.4-.2 6 .5.8 1.2 1.4 1 2.8-.2 0-.1.3-.2.4-1.4.8-4.3.2-6.4.4-.2.4 0 1.8.3 2.4 2.3.4 5.2-1 6.3.6.3.6 0 1.3 0 2.4.2.7-.3 2 .5 2.2.1-.7.6-1 1-1.4.2-.6.6-1 1.4-1 1.2.6.4 2.4 0 3.2-.3.4-.3 1.1-.6 1.6.1.5-.8 1-.2 1.4.3-.8.8-1.4 1.9-1.4.4.6 0 1.8-.2 2.4-.3.6-.5 1.4-.9 2-.3 1.5-.9 2.8-1.6 4v.5c-.2 0-.2.3-.2.4-.2 0-.2.3-.2.4-.3.2 0 .3 0 0 .2 0 .1-.2.2-.4.2 0 .1-.2.2-.4.6-.2.6-1 1.6-.8.8 1-.2 2.6-.6 3.6-.3 1.4-1 2.3-1.4 3.6.3.4 1.1.3 1 1 0 1-.4 1.5-.6 2.2 1.2 0 2-.6 3-.8.9-.2 1.6.5 1.7-.2-.4-.2 0-1.3-.2-1.8v-6c.1-.4-.4-.4-.2-1v-7c0-.4.4-.4.2-1v-3c.3-.3 0-1.2.4-1.5.3-.6 0-.7 0-1.6.5-.4.7-1 1.3-1.4 1 .2 2.6-.3 3.9-.4.5-1.5 1-3 1-5-1.8.5-3.8.7-6.2.6 0-.2-.2-.2-.4-.2l-.8-1.4c0-2.8-.4-5-.2-8z"/></svg>