<svg xmlns="http://www.w3.org/2000/svg" width="204" height="68"><path d="M38.3 42.9c-.2-5.4-1-10.7-1-16 0-4.4.8-9-.7-13 0-.6.2-1 .3-1.5.4-2-6.6-1-7.6 1-.7.5-1 1.2-.8 1.8l.2.6c-1.3 6.4-3.1 12.6-5.2 18.8l-2.6 7c-1.2-2.2-2.4-4.3-3.3-6.7C14.8 28 12.4 21.1 9 14.5c.4-3-6.4-2.8-7.7 0A17.4 17.4 0 00.3 25c.7 4 .8 8 .8 12.2.1 8 .8 15.9.9 23.8-.7.8-1 1.8-.2 2.8.3.4.7.8 1.1 1 1.9 1.5 7 .3 7-2.5 0-8.2-.6-16.4-.8-24.7v-2.4l.3.9c1.3 3.2 2.6 6.3 4.3 9.3 1.8 3 2.7 6.1 3.7 9.3-.4.5-.6 1-.5 1.4 0 .4.1.6.5.8 1.3 1 3.7.5 5 0l1.7-.9c.7-.4 1.7-1.4 1.4-2.3l-.1-.6c.9-2.5 1.4-5.1 1.9-7.8.5-2.9 1.6-5.6 2.6-8.3 0 1.3.2 2.5.3 3.7.4 5.1 0 10.2 0 15.3 0 1.7.1 3.2.4 4.9.2.7.8 3.6.6 3.8-1.2 1.1-.9 2.5.8 2.8 1.8.4 4.1-.2 5.5-1.4 2.4-2.3 1.3-5.7.7-8.5-.9-4.7.2-10 0-14.7zM55 44.2c-.1-4-1.5-7.7-1.5-11.7 0-4.6.3-9.2-.4-13.8-.2-1.4-8 .2-7.8 2.1.6 4.2.4 8.5.3 12.7 0 4.1 1 7.8 1.5 11.8.5 4.1-.2 8.3.3 12.5.2 1.9 1.5 5.4.2 7.1-.9 1 2.9.7 3 .7 1.6-.3 3.6-.8 4.7-2.1 1.3-1.7.4-4.9 0-6.7-.5-4.1-.1-8.4-.3-12.6zM87.7 37.6c-4.2-5.6-11.8-1.6-17.2-3-2.7-.9-2.8-4.6-2.8-6.9 0-2.8-.2-5.4-.5-8.3-.2-2 0-4.2 1.5-5.8.3-.3 1.7-.7 1.6-.7l2.2-.1c3-.2 9.2.4 8 5-.5 2 7.2.8 7.7-1.4C90.7 7.3 73.7 9 69 10.3c-4.5 1.2-9.3 3.7-9.6 8.8-.1 2.4.6 4.8.7 7.2 0 2.7-.4 5.5.5 8.2 2.2 6 11 3.1 15.6 3.5 7.7.6 5.4 11 5.5 15.8 0 2.5 2.4 6.8.4 9-1.2 1.3-4 1.4-5.6 1.5-1.6.1-4.4.6-5.5-1-2-2.8.2-7.5-.2-10.8-.2-1.8-8.1-.2-7.8 2.1.7 5.3-2.8 12.3 4.8 13.2 4.9.6 10.4-.3 15-1.8 2.4-.8 4.6-2 6.5-3.6 2-1.9 1.4-4.7.8-7.1-1.3-5.8 1.5-12.6-2.3-17.7zM122.3 37.2c-.2-7.5-1.4-15-1.4-22.6 0-4-8-2.6-8 .7.1 7.2 1 14.3 1.4 21.5v.5c-3.8 0-7.7.3-11.6.5.4-9.3-1.3-18.5-.9-27.7 0-1.2-7.8-.2-7.8 2-.4 9 1.1 17.9.9 26.8l-.6 12.8c0 2.2.4 4.4.7 6.6.3 2 1 4.6.4 6.6-.5 1.5 7.1.6 7.7-1.4 1-3.5-.4-8-.8-11.7-.4-3.4 0-7 .2-10.5 4-.2 8-.6 12.1 0l.7 8.3.4 7c0 2 .2 5-.5 6.9-1.5 4 6.3 3.7 7.5.7 1.4-3.8 1-8.4.7-12.4-.3-4.8-1-9.7-1-14.6zM156.2 46.2c-1.9-5.6-4.8-10.4-7.3-15.6l5.9-11.8c1.7-3.6 2.9-7.7 6.2-10.2 1.1-.9 1-1.8-.6-1.9-1.7-.1-4 .4-5.5 1.5-3 2.3-4.8 5.1-6.4 8.5a322 322 0 01-5.8 12.2l-.5.9c-1 .6-1.5 1.5-1.2 2.5-1.6 3.1-3.2 6.2-5 9.2-.6-11-2-22.1-2.3-33.2-.1-2.5-8-1-7.9 2.1.5 13.7 2.5 27.5 2.6 41.2-.7.7-.5 1 0 1.3 0 3.5-.1 7-.4 10.5-1 1.5 1 2.3 2.2 2.3h.2c1.4 0 5.2-.7 5.4-2.8.4-4.1.5-8.4.4-12.5a63 63 0 008.2-11.3c1.5 3 3 6 4 9.2 1.7 5.4 4.5 10.5 6.2 16 1 3.6 9 1.5 7.8-2.1-1.6-5.5-4.4-10.6-6.2-16z" class="shp0"/><path fill-rule="evenodd" d="M198.8 40.3c0 3.8.1 7.7.3 11.5 0 2.7 1 8-.8 10.2-1.1 1.3-3 1.8-4.7 2.1-.1 0-4 .4-3-.6 1.6-2 .8-6.7.7-9l-.5-14c-2.1.3-4.2.8-6.4.6-2.8-.2-7.4-1.4-10.1-.3l.2 5v16.6c0 2.1-7.9 3.2-7.9 2 0-7 .2-14-.1-21-.3-6-1.8-12.4-.7-18.4a14 14 0 019-11.4 48.9 48.9 0 0115-2.8c4.8-.2 7.6 1.6 8 6.5.4 5.3.5 10.7.8 16v2c1.8-.1 4.2 0 4.6 1.6.4 1.7-2.1 3.1-4.4 3.4zm-11.4-3.8l3.3-.1c-.2-4-.6-8-.6-12 0-2.5.6-8.2-1.8-9.8-1.8-1.2-3.7-.7-5.7-.4-1.3.3-3.5.2-4.7 1-4.3 2.7-4.9 9.2-4.6 13.9l.6 7.5c4.4-1 8.9-.2 13.5 0z" class="shp0"/><path d="M48.2 13.3c1-.1 2.1-.5 3-1l.5-.5c1-.7 2-1.7 1.4-2.7-1-2.2-.8-4.5-.8-6.8 0-2-2-2.5-3.5-2.4-1.5.1-4.4 1.2-4.4 3 0 2-.1 4 .2 6l-.2.7c-.1.5 0 .9.3 1.2v1c.2.4.5.8.9 1 .8.5 1.7.6 2.6.5z" class="shp0"/></svg>