<svg xmlns="http://www.w3.org/2000/svg" viewBox="0 0 156 196" width="27" height="34"><path fill="#63d1bb" fill-rule="evenodd" stroke="#63d1bb" d="M154.7 9v140.5L78 195 1.3 149.5V8.9L78 1h.8l75.9 8zm-10 76.2L124 97.5v22.7h0v7L78 154.6l-45.7-27.4v-7l45.8 27.2-.2-7.3-45.7-27.5v-7l45.6 27.1v-7.1L11.2 86.2v57.6L78 183.4l66.7-39.6V85.2zm-67-46.5h0L11.4 78.4l66 39.3 11.3-6.8-11-6.5v-7l16.9 10h.1l5.3-3.6-22.4-13.3.1-7 28.3 16.9 5-2.9.7-.4.3-.2-34.4-20.4.1-7 40.2 24 8.4-5 18.2-10.8-67-39zm67-20.7L78 11l-66.7 7v52.7l66.3-39.5h0l67 39.5V18z"/></svg>
