<svg xmlns="http://www.w3.org/2000/svg" width="44" height="42"><path fill="#231f20" fill-rule="evenodd" d="M43.2 38c0 .7-.5.8-.4 1.6-.2.4 0 1.2-.5 1.5-5 .8-11.1 1-16.5.4-5.9.2-11.2 0-16.9.5-1 0-1.5-.4-2.3-.6-1.3 0-2.8 0-3.8-.5-.7-.7-.8-2-1.3-3-.2-1.3-.6-2.3-1-3.5.7-5.8.8-13.3 0-18.8C.4 12.9.1 10.7.2 8v-2C.2 5.8.5 4.9 0 4.6V2.7c.4-.3-.4-.8 0-1.2.2-.5 1-.4 1.2-.8.5-.1 1-.4 1.4-.6 1-.2 2-.6 3.2-.6l.4-.2h4.4c3.5.5 7.4.8 11.4.8l12 .1 3.8.4c1.1.2 2.7 0 3.5.4.5.4.4 1.3 1 1.7 0 .7 0 1.5.2 2.1l.3 4.5c0 4.8.6 9.5.6 14.3 0 4.9 0 9.7-.3 14.4zM16.7 12.2c-.5 0-.8.3-1.4.2 0 .4-.3.6-.8.6-.7 1.2-1.6 2.2-2.3 3.3-.5 2.2-.8 4.8-.7 7.6.3.9.4 1.8.9 2.5.2.8.8 1.3 1 2 .5 0 .6.5 1 .5.2.3.7.2.9.5a4 4 0 011.7.9c.7 0 1.1.3 1.6.6 1.6.3 3.3.4 4.9.6.6-.6 1.5-.9 2.4-1.2.5.2 1 .5 1.7.2.5-.2.7-.7.9-1.1l1-1c.6-.6 1-1.5 1.6-2.2.2-.5.3-1 .6-1.4.3-2.8 0-6.1-.6-8.5l.1-1.6c-1.2.2-1.3-.7-2.2-.8-.6-.4-1.3-.7-2.2-.8l-.3-.1.3.2c1 .7 2.3 1 2.8 2.2a17 17 0 011.2 6.9c-.4 1-1.4 1.8-1 3.1l-.8 1.4a10.2 10.2 0 01-5.7 2.9c-.7 0-1.2 0-1.8.2-1.6-.2-3-.5-4.2-1.1-1-.9-2.4-1.4-3-2.6-.7-2.4-1-5.3-1.3-8.3.2 0 .2-.4.2-.6l.4-.8c.3-.2.6-.3.6-.8.7-.2 1-.7 1.4-1.2.6-.2 1-.7 1.5-1l1.8-1c1-.2 2.1-.5 3.5-.4.7.3 1.6.3 2 .7.7-.3 1.6 0 2.1.2v-.2c-.8-.2 0-1-.3-1.3-1.2-.4-2.3-.8-3.8-1-1.9 0-3.3.4-4.8.7-.4.3-.4.9-1 1zm-2.8-2c.7-.1 1.7 0 2.2-.2 0-.5-.3-.7-.2-1.3-.5 0-1 0-1-.4h1V3.9c-.3-.1-.9.2-1-.2.4-.4 1.4-.3 1.2-1.3-.3-.2-1.5-.3-1.7 0l.3.1c0 .5-.6.5-.6 1 0 .8-.1 1.7.1 2.2.2 1.7-.5 3.2-.3 4.4zM13 4.4c.2-.5.5-1.3.2-1.8 0-.2-.2-.2-.3-.2 0 .6-.2 1.6.1 2zm-.1.8c0 .4 0 .7.3.9 0-.5 0-.8-.3-1zm.1 3.3c0 .2 0 .6.2.3 0-.2 0-.6-.2-.3zm-.4 1.4c.2.2.7.2.7-.2-.3 0 0-.5-.4-.5-.1.3-.3.4-.3.7zM8.8 7.2c-1.1.3-1 2-1.1 3.2 1 0 1.7-.3 2.9-.1-.4-1.3-.3-3.2-.3-4.9-.1-.3-.9 0-.8-.6.4 0 .6 0 .8-.2V2.4c-.8 0-1.8-.2-2.3.1.3 1.1-.1 2.5 0 4 .2 0 .2.2.2.4s.5 0 .6.3zM6.9 5.7c-.2.1-.2 1.3.2 1.2.3-.2.5-1.2-.2-1.2zm0 1.8L6.8 9c.7.2.6-1.3.1-1.4zM7 4c-.2.3-.2.9.3.8.3-.2.3-.9-.3-.8zm-.3-1.3c.3 0 .1.5.5.4 0-.2.2-.3.1-.6-.2 0-.5 0-.6.2zm0 7.7c.4.3.5-.5.2-.4 0 .2 0 .3-.2.4zm-2-7.9c0 .7.9.5.8 0h-.7zm-2 1c.2-.5.8-.4.9-.8-.6-.2-1.2.4-.8.7zm0 3c.8 0 .8-.5 1.3-.5l-.1-2 .1-.4c0-.5.8-.3.6-1H4L4 3 2.5 4.2l.2 2.3zm2.2 3.8c-.5-1-.3-2.9-.9-3.8l-1.2 1v3.2c.6-.2 1.6-.1 2.1-.4zM40 27.4l-.4-2.9c-.1-3.5.2-6.8.3-10.1-.2-.5-.2-1.2-.5-1.6h-4.2c-1.2 0-2.7-.6-3.4-.1 2.2 1.5 3.1 4 3.5 7.3v2.7c-.4 4.8-3.2 7.3-5.9 9.7l-1.4.8c-3.4.7-7.6.7-11 0-1.8-1-3.2-2.4-5-3.4a8.7 8.7 0 01-2-2.8c-.8-4.4 0-9 1.2-12.3.3-.3.5-.5.8-.6l.6-.8c-3.4-.3-6.3-.4-9.6-.5 0 .6.5.8.5 1.4 0 5.3.8 9.7.9 14.9.2.4.2-.7.6-.6.1-.4.4-.6.9-.6.2.3.5 1 .1 1.5 0 .6-.2 1.2-.4 1.7l-.8 3.5c.1.5-.2 1.4.2 1.6.3-1 1-1.7 1.3-2.6.7-.6.9-1.7 2-2C8 33.2 7.2 34 7 35.6c-.3.5-.6 1-.7 1.8-.4.1 0 .8-.2 1.2-.2 0-.6.6-.3.8.8-.5 1.2-1.5 2-2 .4-.5.7 0 1-.5l1.4-2.2.8-1.1c.5 0 1-.6 1.3 0 0 1.3-1 1.7-1.3 2.7L9.4 39h2c.3-1 1-1.7 1.5-2.6.4-.6 1.6-2 2.4-1-.3 1.5-1.5 2.1-1.8 3.6 1.3 0 2.2-.3 3.6-.2.7-1 .7-2.5 2.3-2.6.6.8 0 2-.3 2.6.5 0 .5-.4 1-.4 0 .4.1.5.5.4 5.7-.3 12 0 17.8-.3.4-1.7.5-3.7.7-5.6.5-1.7.8-3.5 1-5.5zm.3-22.3c-.1-.7-.3-1.2-.6-1.8-1-.5-2.7-.3-4-.6l-7.5-.2c-.6-.1-1.2-.2-2-.1-1.1.5-2.5 1-3.3 1.8-.7.1-1 .8-1.7.9-.4.3-1 1-1.5.8C20.3 5 21 4.5 22 4c.7-.6 1.9-.9 2.6-1.6h-6.3c.3 2.3.4 4.8.2 7.3 4.5-.3 8.5-.2 13-.3.6.2 1.4 0 2 .3.6 0 1.7.5 2-.2-1-.3-2.7 0-3-1a12 12 0 01.5-5.2c2.3 0 5-1 5.8.9.1.8 0 1.4-.1 2.1 0 1.2.1 2.6-.6 3-.4.5-1.9-.2-2 .5l3.8.8c.1-1.8.5-3.5.4-5.5zm-14.8-.6c.7-.7 1.6-1 2.7-1.4-.6.8-1.8 1-2.7 1.4zm2.9.6c.7-.1 1-.7 2-.8-1.2.7-2.1 1.5-3.6 1.9.3-.6 1.1-.7 1.6-1.1zm-4.3.6c0 .1 0 .2-.2.2 0-.1 0-.2.2-.2zm-.2.2l-.1.1s0-.2.1-.1zm-.1.1c-.4.5-1 1-1.7 1.2.5-.5 1-1 1.7-1.2zm4.8 1.7c1-.3 1.4-1 2.5-1-.4.7-1.4.8-2 1.4-1 .3-1.4 1-2.4 1.1.4-.7 1.4-1 2-1.5zm-7.4.1l-.1.2.1-.2zm-4 13c.2.2.1.6.4.7-.1-.3.2-1-.3-.8zm.7 1.5c0-.2-.1-.4-.2-.2 0 .2 0 .4.2.2zm.9-4.3s-.1-.2-.2 0c0 0 .1.2.2 0zm3.3-2.6c0-.5-.5-1.1-.1-1.6-1-.2-.5 1.5.1 1.6zM25 15l-.8-.5.1.5c.2.8-.4 1-.9 1.2l-.9 1.2v2.1c.4.5.8 1 1 1.5a9 9 0 003.9 1l1.3-.8c.1-1.7-.1-3.2-.3-4.7l-.7-1c-.3-.4-.8-.6-1.2-.8-.7-.1-.9.3-1.5.3zm-.3 12.4c-.2 0-.3-.2-.4 0 0 .2.3.2.4 0zm3.8-5.8c-.3.3-.4.6-.5 1 .5 0 .3-.5.8-.3 0-.4 0-.6-.3-.7zm-5.5-.1s-.3 0-.2.1c0 0 .3 0 .2-.1z"/></svg>