<svg xmlns="http://www.w3.org/2000/svg" viewBox="0 0 172 70" width="172" height="70"><style>tspan { white-space:pre }.shp0 { fill: #000000 } </style><g ><g ><path class="shp0" d="M8.36 52.53C8.33 45.59 7.84 38.66 7.65 31.72C7.63 31.04 7.62 30.35 7.61 29.67C7.71 29.92 7.8 30.16 7.9 30.4C8.98 33.11 10.1 35.73 11.58 38.24C13.04 40.73 13.77 43.4 14.62 46.12C14.3 46.48 14.11 46.9 14.23 47.31C14.16 47.61 14.34 47.8 14.65 47.92C15.72 48.84 17.75 48.39 18.88 47.91C19.36 47.71 19.82 47.47 20.27 47.2C20.85 46.84 21.76 46.05 21.5 45.24C21.45 45.09 21.4 44.93 21.35 44.77C22.14 42.64 22.55 40.42 22.98 38.16C23.44 35.75 24.3 33.47 25.16 31.19C25.25 32.23 25.34 33.28 25.42 34.32C25.77 38.62 25.48 42.86 25.43 47.16C25.42 48.59 25.53 49.91 25.8 51.31C25.92 51.89 26.42 54.36 26.27 54.49C25.24 55.44 25.54 56.61 26.92 56.91C28.47 57.25 30.43 56.74 31.59 55.66C33.61 53.79 32.65 50.87 32.2 48.52C31.43 44.57 32.35 40.16 32.23 36.14C32.09 31.62 31.37 27.13 31.43 22.6C31.48 18.94 32.09 15.17 30.83 11.66C30.91 11.26 30.99 10.86 31.06 10.46C31.39 8.7 25.55 9.63 24.64 11.24C24.06 11.72 23.76 12.28 24.01 12.86C24.07 13 24.12 13.15 24.18 13.29C23.08 18.69 21.54 23.92 19.76 29.15C19.09 31.15 18.27 33.11 17.58 35.11C16.59 33.24 15.6 31.41 14.81 29.41C12.5 23.63 10.41 17.79 7.59 12.22C7.91 9.64 2.19 9.92 1.06 12.28C-0.3 15.13 -0.12 18.01 0.33 21.06C0.83 24.5 0.92 27.88 0.97 31.36C1.04 38.05 1.57 44.73 1.67 51.44C1.07 52.1 0.89 52.92 1.51 53.75C1.78 54.12 2.12 54.39 2.48 54.67C3.99 55.89 8.37 54.86 8.36 52.53Z" /><path class="shp0" d="M44.75 15.79C44.58 14.56 37.92 15.96 38.15 17.56C38.67 21.11 38.49 24.68 38.42 28.26C38.36 31.71 39.21 34.83 39.66 38.2C40.11 41.67 39.51 45.21 39.91 48.67C40.09 50.3 41.17 53.3 40.06 54.71C39.35 55.6 42.53 55.28 42.67 55.26C43.97 55.02 45.69 54.6 46.55 53.51C47.66 52.12 46.88 49.43 46.64 47.86C46.11 44.39 46.45 40.78 46.32 37.28C46.2 33.93 45.03 30.78 45.02 27.39C45 23.5 45.32 19.65 44.75 15.79Z" /><path class="shp0" d="M51 29.08C52.82 34.11 60.3 31.73 64.1 32.02C70.58 32.5 68.65 41.24 68.73 45.3C68.77 47.47 70.72 51.08 69.08 52.9C68.08 54.01 65.75 54.08 64.38 54.19C63.01 54.3 60.67 54.71 59.76 53.41C58.09 51.02 59.91 47.01 59.56 44.28C59.35 42.72 52.71 44.12 52.96 46.04C53.54 50.47 50.6 56.39 57 57.15C61.12 57.64 65.75 56.88 69.64 55.59C71.65 54.92 73.52 54 75.1 52.57C76.84 50.98 76.27 48.61 75.8 46.6C74.66 41.68 77.04 36.02 73.83 31.69C70.35 27 63.91 30.37 59.41 29.09C57.08 28.43 57.06 25.27 57.07 23.37C57.07 20.97 56.87 18.77 56.6 16.39C56.4 14.62 56.56 12.82 57.86 11.5C58.1 11.25 59.3 10.93 59.22 10.92C59.82 10.82 60.36 10.8 61.02 10.77C63.63 10.66 68.79 11.16 67.79 14.96C67.34 16.66 73.85 15.68 74.32 13.88C76.36 6.13 62.05 7.62 58 8.7C54.28 9.68 50.17 11.8 49.96 16.1C49.85 18.16 50.42 20.12 50.51 22.15C50.61 24.49 50.18 26.82 51 29.08Z" /><path class="shp0" d="M79.91 32.82C79.8 36.42 79.49 40.01 79.47 43.61C79.46 45.45 79.76 47.29 80.03 49.11C80.27 50.79 80.84 53.03 80.33 54.7C79.93 55.99 86.33 55.18 86.84 53.52C87.75 50.53 86.46 46.72 86.16 43.69C85.86 40.79 86.09 37.8 86.3 34.85C89.72 34.63 93.14 34.35 96.54 34.83C96.69 37.15 96.87 39.47 97.08 41.79C97.26 43.74 97.39 45.69 97.41 47.65C97.44 49.36 97.65 51.85 97.04 53.48C95.74 56.94 102.35 56.66 103.32 54.09C104.5 50.94 104.16 47.02 103.96 43.7C103.7 39.59 103.15 35.49 103.02 31.37C102.82 25.01 101.86 18.71 101.83 12.34C101.82 9.02 95.16 10.14 95.17 12.92C95.2 19 96.01 24.99 96.32 31.05C96.33 31.17 96.33 31.29 96.33 31.42C93.06 31.39 89.77 31.72 86.48 31.84C86.82 24.03 85.45 16.29 85.75 8.49C85.79 7.51 79.22 8.34 79.15 10.26C78.86 17.8 80.14 25.28 79.91 32.82Z" /><path class="shp0" d="M108.07 43.56C107.56 44.08 107.75 44.39 108.16 44.57C108.16 47.52 108.06 50.47 107.8 53.42C107.01 54.68 108.58 55.34 109.63 55.34C109.68 55.34 109.74 55.34 109.79 55.34C111.04 55.34 114.21 54.76 114.37 53.04C114.69 49.51 114.79 45.97 114.76 42.45C117.44 39.55 119.63 36.33 121.59 32.95C122.87 35.45 124.09 37.96 124.95 40.67C126.4 45.29 128.82 49.54 130.22 54.17C131.14 57.22 137.73 55.42 136.82 52.4C135.41 47.77 133.1 43.48 131.54 38.9C129.96 34.26 127.54 30.18 125.45 25.77C127.14 22.49 128.85 19.2 130.39 15.85C131.78 12.8 132.83 9.42 135.58 7.27C136.54 6.52 136.5 5.76 135.14 5.67C133.67 5.56 131.67 5.99 130.48 6.92C127.98 8.87 126.39 11.23 125.09 14.11C123.52 17.56 121.89 20.95 120.18 24.34C120.06 24.59 119.93 24.84 119.8 25.09C118.98 25.62 118.48 26.37 118.72 27.22C117.39 29.85 116.03 32.47 114.51 34.99C114.01 25.66 112.91 16.35 112.58 7.02C112.5 4.88 105.89 6.21 105.98 8.79C106.39 20.36 108.03 31.9 108.15 43.47C108.12 43.5 108.09 43.54 108.07 43.56Z" /><path fill-rule="evenodd" class="shp0" d="M167.43 33.98C167.5 37.21 167.54 40.43 167.67 43.65C167.76 45.9 168.59 50.4 166.99 52.28C166.08 53.36 164.45 53.79 163.11 54.04C162.99 54.05 159.76 54.35 160.5 53.48C161.89 51.83 161.17 47.87 161.09 45.88C160.93 41.99 160.78 38.07 160.75 34.18C158.94 34.39 157.15 34.84 155.28 34.67C152.99 34.45 149.08 33.43 146.77 34.43C146.86 35.79 146.92 37.17 146.94 38.54C147.02 43.22 146.95 47.89 146.94 52.57C146.94 54.39 140.35 55.31 140.35 54.34C140.35 48.44 140.5 42.52 140.24 36.62C140.02 31.52 138.69 26.12 139.62 21.04C140.46 16.41 142.9 13.18 147.3 11.47C151.09 9.99 155.83 9.26 159.9 9.11C163.92 8.95 166.24 10.44 166.59 14.58C166.97 19.04 167.04 23.62 167.25 28.11C167.28 28.67 167.29 29.24 167.31 29.8C168.83 29.67 170.78 29.7 171.14 31.1C171.5 32.53 169.37 33.72 167.43 33.98ZM160.65 30.65C160.48 27.27 160.12 23.91 160.12 20.53C160.13 18.49 160.63 13.68 158.59 12.33C157.12 11.36 155.46 11.72 153.83 12.01C152.68 12.22 150.84 12.11 149.86 12.75C146.2 15.13 145.73 20.62 146 24.54C146.15 26.65 146.34 28.75 146.51 30.85C150.16 30.08 153.96 30.68 157.81 30.78C158.77 30.79 159.72 30.74 160.65 30.65Z" /><path class="shp0" d="M37.4 8.14C37.31 8.5 37.43 8.86 37.64 9.14C37.64 9.22 37.64 9.29 37.64 9.37C37.65 9.55 37.66 9.74 37.67 9.93C37.79 10.32 38.03 10.62 38.39 10.82C39.04 11.22 39.87 11.29 40.61 11.22C41.49 11.13 42.37 10.83 43.1 10.34C43.25 10.21 43.39 10.09 43.53 9.97C44.41 9.41 45.17 8.58 44.76 7.68C43.91 5.81 44.04 3.92 44.06 1.93C44.07 0.31 42.43 -0.17 41.06 -0.05C39.84 0.06 37.4 0.93 37.39 2.51C37.38 4.18 37.27 5.9 37.58 7.55C37.5 7.74 37.45 7.95 37.4 8.14Z" /><path class="shp0" d="M160.56 66.51C157.44 65.34 153.99 65.28 150.85 64.94C147.65 64.6 144.36 64.12 141.09 63.81C137.81 63.92 134.47 63.87 131.14 64.07L121.38 64.6C108.41 65.18 95.39 65.11 82.35 64.82C69.32 64.57 56.26 63.87 43.09 63.91C36.51 63.93 29.96 64.11 23.37 64.41C20.1 64.98 16.89 65.41 13.56 66.24C10.33 67.04 7.27 68.05 3.97 68.33C7.22 69.06 10.65 68.92 13.89 68.93C17.05 68.95 20.38 69.21 23.64 69.39C30.09 69.05 36.61 68.9 43.1 68.88C56.08 68.83 69.13 69.53 82.24 69.78C95.33 70.07 108.46 70.15 121.6 69.56L131.41 69.02C134.62 68.88 137.81 68.77 141.07 68.88C144.33 68.59 147.58 68.22 150.91 67.82C154.24 67.34 157.35 66.57 160.62 66.8L160.77 66.81L160.78 66.71C160.82 66.35 160.7 66.06 160.7 65.75C160.63 66 160.62 66.28 160.56 66.51Z" /></g></g></svg>