<svg xmlns="http://www.w3.org/2000/svg" width="172" height="70"><path d="M8.4 52.5c0-7-.6-13.8-.8-20.8v-2l.3.7a56 56 0 003.7 7.8c1.4 2.5 2.2 5.2 3 8-.3.3-.5.7-.4 1.1 0 .3.1.5.5.6 1 1 3 .5 4.2 0l1.4-.7c.6-.4 1.5-1.2 1.2-2l-.1-.4c.7-2.2 1.2-4.4 1.6-6.6.4-2.5 1.3-4.7 2.2-7l.2 3.1c.4 4.3 0 8.6 0 12.9 0 1.4.1 2.7.4 4.1.1.6.6 3 .5 3.2-1 1-.8 2.1.6 2.4 1.6.4 3.5-.2 4.7-1.2 2-2 1-4.8.6-7.2-.8-4 .1-8.3 0-12.4-.1-4.5-.8-9-.8-13.5 0-3.7.7-7.4-.6-11l.3-1.1c.3-1.8-5.6-.9-6.5.7-.5.5-.8 1-.6 1.7l.2.4A129 129 0 0119.8 29l-2.2 6c-1-1.9-2-3.7-2.8-5.7-2.3-5.8-4.4-11.6-7.2-17.2.3-2.6-5.4-2.3-6.5 0a14.6 14.6 0 00-.8 8.9c.5 3.4.6 6.8.7 10.3 0 6.6.6 13.3.7 20-.6.7-.8 1.5-.2 2.4l1 .9c1.5 1.2 5.9.2 5.9-2.2zM44.8 15.8c-.2-1.2-6.9.2-6.6 1.8.5 3.5.3 7 .2 10.7 0 3.4.8 6.5 1.3 9.9.4 3.5-.2 7 .2 10.5.2 1.6 1.3 4.6.2 6-.8.9 2.4.6 2.6.6 1.3-.3 3-.7 3.8-1.8 1.2-1.4.4-4 .1-5.6-.5-3.5-.1-7.1-.3-10.6-.1-3.4-1.3-6.5-1.3-10 0-3.8.3-7.7-.3-11.5zM51 29c1.8 5.1 9.3 2.7 13.1 3 6.5.5 4.6 9.2 4.6 13.3 0 2.2 2 5.8.4 7.6-1 1.1-3.3 1.2-4.7 1.3-1.4.1-3.7.5-4.6-.8-1.7-2.4.1-6.4-.2-9.1-.3-1.6-6.9-.2-6.6 1.7.5 4.5-2.4 10.4 4 11.1 4.1.5 8.8-.2 12.6-1.5a15 15 0 005.5-3c1.7-1.6 1.2-4 .7-6-1.1-5 1.2-10.6-2-15-3.5-4.6-9.9-1.2-14.4-2.5-2.3-.7-2.3-3.8-2.3-5.7 0-2.4-.2-4.6-.5-7-.2-1.8 0-3.6 1.3-4.9.2-.3 1.4-.6 1.3-.6l1.8-.1c2.6-.1 7.8.4 6.8 4.2-.5 1.7 6 .7 6.5-1.1C76.3 6 62 7.6 58 8.7c-3.7 1-7.8 3.1-8 7.4-.1 2 .4 4 .5 6 .1 2.4-.3 4.7.5 7zM80 32.8c-.2 3.6-.5 7.2-.5 10.8 0 1.9.3 3.7.5 5.5.3 1.7.8 4 .3 5.6-.4 1.3 6 .5 6.5-1.2 1-3-.3-6.8-.6-9.8-.3-3-.1-5.9.1-8.9 3.4-.2 6.8-.4 10.2 0l.6 7c.2 2 .3 3.9.3 5.9 0 1.7.3 4.1-.4 5.8-1.3 3.4 5.3 3.2 6.3.6 1.2-3.2.9-7 .7-10.4-.3-4.1-.8-8.2-1-12.3-.2-6.4-1.1-12.7-1.2-19 0-3.4-6.6-2.3-6.6.5 0 6.1.8 12 1.1 18.2v.3c-3.2 0-6.5.3-9.8.4.3-7.8-1-15.5-.8-23.3 0-1-6.5-.2-6.5 1.8-.3 7.5 1 15 .7 22.5zM108 43.6c-.4.5-.3.8.2 1 0 3-.1 5.9-.4 8.8-.8 1.3.8 2 1.8 2h.2c1.2 0 4.4-.6 4.6-2.4.3-3.5.4-7 .4-10.5a53 53 0 006.8-9.5c1.3 2.5 2.5 5 3.4 7.7 1.4 4.6 3.8 8.8 5.2 13.5 1 3 7.5 1.2 6.6-1.8-1.4-4.6-3.7-9-5.3-13.5-1.5-4.6-4-8.7-6-13.1l4.9-10c1.4-3 2.4-6.4 5.2-8.5 1-.8.9-1.5-.5-1.6-1.4-.1-3.4.3-4.6 1.2a18 18 0 00-5.4 7.2 282 282 0 01-5.3 11c-.8.5-1.3 1.3-1 2.1-1.4 2.7-2.8 5.3-4.3 7.8-.5-9.3-1.6-18.6-2-28 0-2.1-6.6-.8-6.5 1.8.4 11.6 2 23.1 2.2 34.7h-.1z" class="shp0"/><path fill-rule="evenodd" d="M167.4 34l.3 9.6c0 2.3.9 6.8-.7 8.7-1 1-2.6 1.5-3.9 1.7-.1 0-3.3.4-2.6-.5 1.4-1.7.7-5.6.6-7.6l-.3-11.7c-1.9.2-3.7.6-5.5.5-2.3-.3-6.2-1.3-8.5-.3l.1 4.1v14c0 1.9-6.6 2.8-6.6 1.8 0-5.9.2-11.8 0-17.7-.3-5-1.6-10.5-.7-15.6.9-4.6 3.3-7.8 7.7-9.5 3.8-1.5 8.5-2.2 12.6-2.4 4-.2 6.3 1.3 6.7 5.5.4 4.4.4 9 .7 13.5v1.7c1.5-.1 3.5-.1 3.8 1.3.4 1.4-1.7 2.6-3.7 2.9zm-6.8-3.4c-.1-3.3-.5-6.7-.5-10 0-2.1.5-7-1.5-8.3-1.5-1-3.1-.6-4.8-.3-1.1.2-3 .1-4 .8-3.6 2.3-4 7.8-3.8 11.7l.5 6.4c3.7-.8 7.5-.2 11.3-.1 1 0 2 0 2.8-.2z" class="shp0"/><path d="M37.4 8.1c0 .4 0 .8.2 1v.8c.2.4.4.7.8 1 .6.3 1.5.4 2.2.3.9 0 1.8-.4 2.5-.9l.4-.3c1-.6 1.7-1.4 1.3-2.3-.9-1.9-.8-3.8-.7-5.8 0-1.6-1.7-2-3-2-1.3.2-3.7 1-3.7 2.6 0 1.7-.1 3.4.2 5l-.2.6zM160.6 66.5c-3.2-1.2-6.6-1.2-9.8-1.6-3.2-.3-6.4-.8-9.7-1-3.3 0-6.6 0-10 .2l-9.7.5c-13 .6-26 .5-39 .2-13-.2-26.1-1-39.3-.9-6.6 0-13.1.2-19.7.5-3.3.6-6.5 1-9.8 1.8-3.3.8-6.3 1.8-9.6 2.1 3.2.8 6.7.6 9.9.6s6.5.3 9.7.5c6.5-.4 13-.5 19.5-.5 13 0 26 .6 39.1.9 13.1.3 26.3.4 39.4-.2l9.8-.6c3.2-.1 6.4-.2 9.7-.1l9.8-1c3.3-.6 6.4-1.3 9.7-1.1h.2l-.1-1-.1.7z" class="shp0"/></svg>