<svg xmlns="http://www.w3.org/2000/svg">
  <symbol id="search-icon" viewBox="0 0 36 36">
    <path fill-rule="evenodd" d="M35.6 33.2C35.6 34.41 34.61 35.4 33.4 35.4C32.69 35.4 32.26 35.14 31.86 34.74L25.02 27.91C22.45 29.84 19.27 31 15.8 31C7.29 31 0.4 24.1 0.4 15.6C0.4 7.09 7.29 0.2 15.8 0.2C24.3 0.2 31.2 7.09 31.2 15.6C31.2 19.07 30.04 22.25 28.11 24.83L34.94 31.66C35.48 32.2 35.6 32.72 35.6 33.2ZM15.8 26.6C21.87 26.6 26.8 21.67 26.8 15.6C26.8 9.52 21.87 4.6 15.8 4.6C9.72 4.6 4.8 9.52 4.8 15.6C4.8 21.68 9.72 26.6 15.8 26.6Z"/>
  </symbol>
  <symbol id="cart-icon" viewBox="0 0 40 38">
    <path fill-rule="evenodd" d="M40.59 16.26C40.59 17.09 39.92 17.76 39.09 17.76L38.77 17.76L37.07 23.74C37.44 24.01 37.7 24.43 37.7 24.93C37.7 25.72 37.08 26.35 36.3 26.41L32.99 38L7.6 38L4.29 26.41C3.51 26.35 2.89 25.72 2.89 24.93C2.89 24.43 3.15 24.01 3.52 23.74L1.81 17.76L1.5 17.76C0.67 17.76 0 17.09 0 16.26C0 15.43 0.67 14.76 1.5 14.76L7.8 14.76L14.62 1.13C14.99 0.39 15.89 0.09 16.63 0.46C17.37 0.83 17.67 1.73 17.3 2.47L11.16 14.76L29.43 14.76L23.29 2.47C22.92 1.73 23.22 0.83 23.96 0.46C24.7 0.09 25.6 0.39 25.97 1.13L32.79 14.76L39.09 14.76C39.92 14.76 40.59 15.43 40.59 16.26ZM33.18 26.43L7.41 26.43L9.86 35L30.73 35L33.18 26.43ZM35.65 17.76L4.94 17.76L6.56 23.43L34.03 23.43L35.65 17.76Z"/>
  </symbol>

</svg>
