<svg xmlns="http://www.w3.org/2000/svg">
  <symbol id="search-icon" viewBox="0 0 36 36">
    <path fill-rule="evenodd" d="M35.6 33.2C35.6 34.41 34.61 35.4 33.4 35.4C32.69 35.4 32.26 35.14 31.86 34.74L25.02 27.91C22.45 29.84 19.27 31 15.8 31C7.29 31 0.4 24.1 0.4 15.6C0.4 7.09 7.29 0.2 15.8 0.2C24.3 0.2 31.2 7.09 31.2 15.6C31.2 19.07 30.04 22.25 28.11 24.83L34.94 31.66C35.48 32.2 35.6 32.72 35.6 33.2ZM15.8 26.6C21.87 26.6 26.8 21.67 26.8 15.6C26.8 9.52 21.87 4.6 15.8 4.6C9.72 4.6 4.8 9.52 4.8 15.6C4.8 21.68 9.72 26.6 15.8 26.6Z"/>
  </symbol>
  <symbol id="cart-icon" viewBox="0 0 40 38">
    <path fill-rule="evenodd" d="M40.59 16.26C40.59 17.09 39.92 17.76 39.09 17.76L38.77 17.76L37.07 23.74C37.44 24.01 37.7 24.43 37.7 24.93C37.7 25.72 37.08 26.35 36.3 26.41L32.99 38L7.6 38L4.29 26.41C3.51 26.35 2.89 25.72 2.89 24.93C2.89 24.43 3.15 24.01 3.52 23.74L1.81 17.76L1.5 17.76C0.67 17.76 0 17.09 0 16.26C0 15.43 0.67 14.76 1.5 14.76L7.8 14.76L14.62 1.13C14.99 0.39 15.89 0.09 16.63 0.46C17.37 0.83 17.67 1.73 17.3 2.47L11.16 14.76L29.43 14.76L23.29 2.47C22.92 1.73 23.22 0.83 23.96 0.46C24.7 0.09 25.6 0.39 25.97 1.13L32.79 14.76L39.09 14.76C39.92 14.76 40.59 15.43 40.59 16.26ZM33.18 26.43L7.41 26.43L9.86 35L30.73 35L33.18 26.43ZM35.65 17.76L4.94 17.76L6.56 23.43L34.03 23.43L35.65 17.76Z"/>
  </symbol>
  <symbol id="instagram-icon" viewBox="0 0 44 42">
    <path fill-rule="evenodd" d="M43.23 38.05C43.19 38.67 42.66 38.8 42.77 39.57C42.57 40.03 42.71 40.82 42.32 41.09C37.37 41.92 31.18 42.02 25.77 41.54C19.91 41.69 14.6 41.58 8.91 42C7.97 41.98 7.4 41.59 6.63 41.39C5.3 41.31 3.84 41.35 2.84 40.94C2.14 40.16 1.98 38.85 1.47 37.9C1.29 36.62 0.87 35.56 0.56 34.4C1.16 28.65 1.34 21.1 0.41 15.58C0.53 12.93 0.22 10.7 0.26 8.14L0.26 6.16C0.16 5.65 0.45 4.75 0.11 4.49L0.11 2.67C0.48 2.36 -0.26 1.88 0.11 1.46C0.29 0.99 1.05 1.08 1.32 0.7C1.84 0.56 2.27 0.33 2.69 0.09C3.72 -0.14 4.68 -0.45 5.88 -0.52C6.12 -0.47 6.14 -0.66 6.33 -0.67L10.73 -0.67C14.22 -0.2 18.12 0.09 22.13 0.09C26.17 0.09 30.25 0.04 34.12 0.24C35.41 0.32 36.6 0.49 37.92 0.55C39 0.77 40.56 0.53 41.4 1C41.87 1.39 41.8 2.33 42.32 2.67C42.4 3.4 42.41 4.2 42.62 4.8C42.75 6.28 42.88 7.78 42.93 9.35C42.84 14.05 43.51 18.83 43.53 23.62C43.56 28.48 43.49 33.27 43.23 38.05ZM16.66 12.24C16.16 12.24 15.9 12.49 15.29 12.39C15.26 12.81 15.03 13.04 14.53 12.99C13.81 14.15 12.95 15.15 12.25 16.33C11.68 18.54 11.41 21.06 11.49 23.93C11.79 24.75 11.95 25.69 12.4 26.36C12.58 27.24 13.23 27.65 13.47 28.48C13.92 28.48 13.98 28.88 14.38 28.94C14.62 29.16 15.09 29.14 15.29 29.39C15.97 29.57 16.51 29.89 16.96 30.3C17.66 30.37 18.15 30.63 18.63 30.91C20.19 31.17 21.86 31.33 23.49 31.52C24.11 30.93 25.03 30.63 25.92 30.3C26.43 30.48 26.99 30.78 27.59 30.46C28.09 30.3 28.27 29.82 28.5 29.4C28.91 29.15 29.22 28.8 29.41 28.33C30.12 27.78 30.46 26.85 31.08 26.21C31.26 25.72 31.36 25.17 31.69 24.84C32.03 21.96 31.73 18.7 31.08 16.34C31.06 15.71 31.05 15.09 31.23 14.67C30.03 14.86 29.86 14.02 28.96 13.91C28.42 13.48 27.72 13.22 26.83 13.15C26.83 13 26.64 13.03 26.53 13C26.53 13 26.53 13 26.53 13C26.53 13.14 26.71 13.11 26.83 13.15C27.72 13.92 29.05 14.27 29.56 15.43C30.38 17.29 30.78 19.57 30.78 22.26C30.45 23.25 29.36 24.11 29.87 25.45C29.46 25.8 29.16 26.25 28.96 26.81C27.53 28.22 25.76 29.28 23.34 29.7C22.62 29.64 22.07 29.75 21.52 29.85C19.92 29.68 18.44 29.38 17.26 28.79C16.33 27.9 14.95 27.45 14.38 26.21C13.6 23.75 13.23 20.88 13.01 17.85C13.24 17.83 13.15 17.49 13.17 17.25C13.43 17.11 13.44 16.72 13.62 16.49C13.88 16.29 14.22 16.17 14.23 15.73C14.89 15.53 15.18 14.96 15.59 14.51C16.22 14.29 16.58 13.78 17.11 13.45C17.72 13.15 18.33 12.84 18.93 12.54C19.98 12.27 21.03 12.01 22.43 12.09C23.05 12.38 23.95 12.38 24.4 12.84C25.06 12.53 25.99 12.73 26.53 13L26.53 13C26.53 13 26.53 13 26.53 13C26.53 13 26.53 13 26.53 13C26.53 13 26.53 13 26.53 13L26.53 12.84C25.73 12.57 26.45 11.84 26.22 11.48C25 11.13 23.85 10.72 22.43 10.57C20.53 10.49 19.08 10.87 17.57 11.17C17.19 11.45 17.17 12.09 16.66 12.24ZM13.92 10.11C14.62 10.05 15.6 10.27 16.05 9.96C16.08 9.47 15.78 9.32 15.9 8.75C15.44 8.74 14.97 8.76 14.99 8.29L15.9 8.29C15.78 6.88 15.96 5.59 15.9 3.89C15.63 3.8 15.01 4.07 14.99 3.73C15.34 3.28 16.31 3.44 16.05 2.37C15.78 2.17 14.63 2.08 14.38 2.37C14.5 2.4 14.68 2.37 14.68 2.52C14.63 3.03 14.06 3.01 14.08 3.58C14.09 4.32 13.99 5.18 14.23 5.71C14.4 7.36 13.72 8.92 13.92 10.11ZM13.01 4.49C13.18 4.04 13.52 3.18 13.16 2.67C13.13 2.55 13.04 2.49 12.86 2.52C12.96 3.13 12.67 4.14 13.01 4.49ZM12.86 5.25C12.83 5.69 12.9 6.02 13.17 6.16C13.2 5.73 13.13 5.39 12.86 5.25ZM13.01 8.59C13 8.81 13.05 9.17 13.17 8.9C13.18 8.68 13.13 8.32 13.01 8.59ZM12.56 9.96C12.75 10.17 13.3 10.19 13.32 9.81C13.03 9.79 13.21 9.3 12.86 9.35C12.78 9.58 12.64 9.74 12.56 9.96ZM8.76 7.23C7.66 7.54 7.89 9.19 7.7 10.41C8.77 10.48 9.45 10.14 10.58 10.26C10.17 8.96 10.29 7.11 10.28 5.4C10.17 5.06 9.41 5.36 9.52 4.8C9.87 4.85 10.1 4.77 10.28 4.64L10.28 2.37C9.54 2.44 8.5 2.21 8 2.52C8.26 3.64 7.86 5 8 6.47C8.18 6.49 8.17 6.71 8.15 6.92C8.25 7.13 8.74 6.94 8.76 7.23ZM6.94 5.71C6.66 5.85 6.68 6.96 7.09 6.92C7.44 6.71 7.59 5.72 6.94 5.71ZM6.94 7.53C6.85 8.29 6.94 8.27 6.79 8.9C7.46 9.07 7.39 7.56 6.94 7.53ZM6.94 4.04C6.7 4.26 6.72 4.9 7.24 4.8C7.48 4.57 7.46 3.93 6.94 4.04ZM6.63 2.67C6.92 2.69 6.74 3.17 7.09 3.13C7.14 2.92 7.31 2.84 7.24 2.52C7.02 2.54 6.68 2.46 6.63 2.67ZM6.63 10.41C7.01 10.65 7.08 9.9 6.79 9.96C6.79 10.17 6.71 10.29 6.63 10.41ZM4.66 2.52C4.54 3.16 5.48 3.04 5.42 2.52L4.66 2.52ZM2.69 3.43C2.79 3.03 3.38 3.11 3.45 2.67C2.86 2.49 2.26 3.09 2.69 3.43ZM2.69 6.47C3.35 6.57 3.36 6.03 3.9 6.01C3.99 5.21 3.79 4.71 3.75 4.04C3.76 3.84 3.94 3.83 3.9 3.58C3.99 3.11 4.71 3.28 4.51 2.52L4.05 2.52C4.04 2.71 3.86 2.73 3.9 2.97C3.44 3.37 2.99 3.78 2.54 4.19C2.42 5.12 2.73 5.61 2.69 6.47ZM4.81 10.26C4.26 9.25 4.49 7.45 3.9 6.47C3.48 6.8 3.08 7.16 2.69 7.53L2.69 10.72C3.31 10.48 4.26 10.57 4.81 10.26ZM40.04 27.42C39.84 26.51 39.79 25.45 39.58 24.54C39.5 20.96 39.77 17.73 39.89 14.36C39.66 13.93 39.72 13.22 39.43 12.84C38.4 12.73 37.36 12.8 36.55 12.84C36.07 12.87 35.63 12.87 35.18 12.84C34.04 12.78 32.5 12.25 31.84 12.69C33.96 14.17 34.94 16.78 35.33 19.98L35.33 22.71C34.92 27.51 32.14 29.95 29.41 32.43C29.01 32.74 28.52 32.95 28.04 33.19C24.64 33.93 20.36 33.91 16.96 33.19C15.22 32.15 13.76 30.82 11.95 29.85C11.16 29.03 10.43 28.13 9.98 26.97C9.24 22.63 9.98 17.97 11.19 14.67C11.5 14.4 11.66 14.2 11.95 14.06C12.16 13.81 12.38 13.58 12.56 13.3C9.23 13.03 6.25 12.9 2.99 12.84C3.08 13.36 3.5 13.55 3.45 14.21C3.46 19.46 4.27 23.92 4.36 29.09C4.58 29.49 4.58 28.42 4.96 28.48C5.13 28.14 5.42 27.93 5.88 27.88C6.12 28.18 6.37 28.98 6.03 29.4C5.92 29.99 5.84 30.63 5.57 31.06C5.41 32.32 5.06 33.38 4.81 34.56C4.91 35.07 4.62 35.97 4.96 36.23C5.25 35.19 5.91 34.54 6.33 33.65C6.96 32.96 7.19 31.87 8.31 31.67C7.98 33.07 7.18 33.98 6.94 35.47C6.6 35.99 6.31 36.56 6.18 37.29C5.84 37.4 6.12 38.14 6.03 38.5C5.8 38.55 5.38 39.14 5.72 39.26C6.54 38.76 6.92 37.83 7.7 37.29C8.09 36.84 8.4 37.25 8.76 36.84C9.13 35.98 9.66 35.31 10.13 34.56C10.34 34.16 10.64 33.86 10.89 33.49C11.41 33.44 11.94 32.93 12.25 33.49C12.14 34.75 11.23 35.21 10.89 36.23C10.35 37.11 9.85 38.02 9.37 38.96L11.34 38.96C11.75 38 12.45 37.34 12.86 36.38C13.31 35.75 14.5 34.37 15.29 35.47C14.97 36.92 13.83 37.55 13.47 38.96C14.84 39.06 15.74 38.71 17.11 38.81C17.79 37.87 17.79 36.25 19.39 36.23C19.96 37.01 19.49 38.14 19.09 38.81C19.63 38.85 19.64 38.35 20.15 38.35C20.06 38.75 20.21 38.9 20.61 38.81C26.33 38.51 32.59 38.75 38.37 38.5C38.81 36.82 38.91 34.79 39.13 32.89C39.57 31.2 39.86 29.37 40.04 27.42ZM40.34 5.1C40.2 4.44 39.95 3.88 39.73 3.28C38.69 2.81 37.02 2.96 35.79 2.67C33.11 2.77 30.76 2.54 28.2 2.52C27.62 2.39 26.98 2.32 26.22 2.37C25.07 2.94 23.73 3.31 22.88 4.19C22.17 4.34 21.92 4.95 21.21 5.1C20.76 5.37 20.19 6.13 19.69 5.86C20.25 5.05 21.09 4.53 21.97 4.04C22.73 3.38 23.86 3.1 24.55 2.37L18.33 2.37C18.61 4.73 18.71 7.16 18.48 9.66C22.97 9.36 26.97 9.51 31.54 9.35C32.1 9.55 32.92 9.49 33.51 9.66C34.11 9.62 35.21 10.17 35.48 9.5C34.5 9.18 32.79 9.57 32.45 8.59C32.12 6.88 32.61 4.71 33.05 3.28C35.26 3.35 38.02 2.29 38.83 4.19C38.9 5.03 38.74 5.62 38.67 6.32C38.66 7.51 38.84 8.91 38.07 9.35C37.69 9.79 36.24 9.14 36.09 9.81C37.42 10 38.61 10.33 39.89 10.57C40.05 8.75 40.36 7.09 40.34 5.1ZM25.46 4.49C26.16 3.82 27.14 3.44 28.2 3.13C27.58 3.88 26.43 4.1 25.46 4.49ZM28.35 5.1C29.14 4.98 29.45 4.38 30.32 4.34C29.19 4.98 28.28 5.85 26.83 6.16C27.15 5.62 27.92 5.53 28.35 5.1ZM24.1 5.71C24.09 5.8 24.07 5.89 23.95 5.86C23.95 5.77 23.97 5.68 24.1 5.71ZM23.95 5.86C23.94 5.95 23.92 6.04 23.79 6.01C23.8 5.92 23.81 5.83 23.95 5.86ZM23.79 6.01C23.35 6.53 22.82 6.96 22.13 7.23C22.56 6.71 23.1 6.28 23.79 6.01ZM28.65 7.68C29.55 7.42 29.96 6.66 31.08 6.62C30.68 7.38 29.68 7.54 29.11 8.14C28.18 8.37 27.74 9.1 26.68 9.2C27.15 8.51 28.08 8.27 28.65 7.68ZM21.21 7.83C21.29 7.91 21.1 8.03 21.06 7.99C20.98 7.91 21.17 7.79 21.21 7.83ZM17.26 20.74C17.35 21.01 17.34 21.37 17.57 21.5C17.5 21.21 17.78 20.58 17.26 20.74ZM17.87 22.26C17.88 22.1 17.8 21.87 17.72 22.11C17.71 22.27 17.79 22.49 17.87 22.26ZM18.78 18.01C18.78 17.92 18.66 17.83 18.63 18.01C18.63 18.09 18.75 18.18 18.78 18.01ZM22.13 15.43C22.05 14.91 21.56 14.27 21.97 13.76C20.98 13.65 21.52 15.35 22.13 15.43ZM24.85 14.97C24.59 14.83 24.41 14.6 24.1 14.51C24.09 14.72 24.17 14.85 24.25 14.97C24.35 15.78 23.79 15.93 23.34 16.19C23.06 16.62 22.77 17.03 22.43 17.4L22.43 19.53C22.78 20.03 23.15 20.53 23.49 21.04C24.57 21.53 25.72 21.94 27.29 21.96C27.77 21.73 28.14 21.39 28.65 21.19C28.71 19.47 28.46 18.04 28.35 16.49C28.07 16.15 27.76 15.87 27.59 15.43C27.26 15.1 26.8 14.9 26.38 14.67C25.67 14.57 25.5 15.01 24.85 14.97ZM24.55 27.42C24.38 27.44 24.32 27.2 24.25 27.42C24.25 27.57 24.52 27.61 24.55 27.42ZM28.35 21.65C28.13 21.89 28.03 22.24 27.89 22.56C28.36 22.67 28.18 22.14 28.65 22.26C28.69 21.91 28.62 21.69 28.35 21.65ZM22.88 21.5C22.84 21.46 22.65 21.57 22.73 21.65C22.77 21.69 22.96 21.58 22.88 21.5Z"/>
  </symbol>
  <symbol id="facebook-icon" viewBox="0 0 30 56">
    <path fill-rule="evenodd" d="M18.99 12.14C18.4 14.23 19.09 16.65 18.99 18.92C20.89 19.51 23.21 17.85 24.97 18.32C26.29 18.51 26.34 19.92 26.62 21.11C26.55 21.84 26.8 22.88 26.42 23.3C26.45 24.13 26.36 24.84 26 25.29C25.73 26.62 25.69 28.18 24.97 29.08C23.65 29.73 21.59 29.67 19.82 29.88C20.34 34.36 20.02 39.65 20.43 44.23L20.43 50.01C20.29 50.81 20.63 51.15 20.64 51.8C20.78 52.53 20.19 52.57 20.23 53.2C19.58 53.57 18.67 54.07 17.75 53.6C16.56 55.03 14 55.15 12.18 55.99C10.57 55.95 8.71 56.16 7.65 55.59L7.65 53.8C7.62 53.17 8.79 53.71 8.47 52.8C8.73 51.76 7.29 52.35 7.44 51.41C7.46 51.12 7.47 50.84 7.23 50.81C7.07 49.19 7.49 48.13 8.06 47.22C7.51 45.82 7.64 43.77 7.65 41.84C7.82 41.01 7.24 40.9 7.23 40.24C7.74 36.71 6.96 32.84 7.23 28.88C5.6 28.7 3.71 29.22 2.7 28.69C2.63 28.65 2.62 28.54 2.49 28.49C2.03 28.28 1.26 27.88 0.84 27.49C0.57 26.42 0.18 25.47 0.01 24.3C0.07 23.09 -0.21 21.56 0.43 20.91C2.81 20.69 5.23 20.51 7.23 19.92C7.04 19.04 7.02 18 6.82 17.13C6.98 13.21 6.08 9.14 7.23 5.96C7.43 5.96 7.39 5.72 7.44 5.57C9.96 3.02 12.72 0.7 17.96 0.78C19.33 0.38 21.42 0.67 23.12 0.58C24.57 0.91 25.99 1.26 27.45 1.58C27.98 1.93 28.34 2.45 28.89 2.78C28.95 3.18 29.45 3.17 29.51 3.57C29.8 3.7 29.54 4.34 29.92 4.37C29.8 6.64 29.47 8.71 28.69 10.35C27.31 10.95 25.38 11.01 23.32 10.95C21.88 11.35 20.48 11.79 18.99 12.14ZM15.49 12.54C15.66 11.84 16.03 11.34 16.11 10.55C16.59 10.42 16.66 9.89 17.14 9.75C19.15 9.1 20.94 8.24 23.12 7.76L26.21 7.76C26.05 6.48 26.73 6 26.63 4.77C23.75 3.47 17.94 3.88 14.46 4.37C13.17 5.12 11.94 5.93 10.74 6.76C10.62 7.5 9.9 7.67 10.13 8.76C10.39 9.31 10.55 8.13 11.15 8.36C11.18 7.85 11.85 7.96 12.39 7.96C12.29 9.99 11.17 11.03 10.95 12.94C10.58 13.31 10.39 13.86 9.92 14.14C9.79 16.08 10.18 18.51 9.71 20.12C10.2 20.91 10.93 21.46 10.74 22.91C10.54 22.91 10.58 23.15 10.53 23.31C9.1 24.11 6.23 23.53 4.14 23.7C3.9 24.13 4.13 25.48 4.35 26.1C6.69 26.48 9.62 25.1 10.74 26.69C10.99 27.28 10.61 28.04 10.74 29.08C10.87 29.82 10.41 31.14 11.15 31.28C11.33 30.65 11.76 30.26 12.19 29.88C12.41 29.3 12.76 28.84 13.63 28.88C14.76 29.47 14.03 31.25 13.63 32.08C13.35 32.54 13.29 33.21 13.01 33.67C13.13 34.2 12.16 34.69 12.8 35.06C13.07 34.26 13.63 33.74 14.66 33.67C15.13 34.32 14.77 35.54 14.46 36.06C14.2 36.74 14.01 37.49 13.63 38.05C13.32 39.61 12.71 40.89 11.98 42.04L11.98 42.64C11.78 42.64 11.82 42.88 11.77 43.04C11.57 43.04 11.61 43.28 11.57 43.44C11.27 43.56 11.59 43.68 11.57 43.44C11.77 43.43 11.73 43.19 11.77 43.04C11.97 43.03 11.93 42.79 11.98 42.64C12.59 42.43 12.59 41.63 13.63 41.84C14.44 42.83 13.41 44.4 13.01 45.43C12.69 46.78 11.96 47.73 11.57 49.02C11.87 49.39 12.7 49.25 12.6 50.01C12.62 50.96 12.21 51.5 11.98 52.2C13.22 52.14 14.02 51.65 15.07 51.4C15.9 51.16 16.58 51.93 16.72 51.2C16.25 50.99 16.64 49.95 16.52 49.41L16.52 43.43C16.6 42.95 16.14 43 16.31 42.44L16.31 35.46C16.23 34.98 16.69 35.03 16.52 34.47L16.52 31.47C16.82 31.11 16.53 30.16 16.93 29.88C17.21 29.28 16.83 29.17 16.93 28.29C17.42 27.9 17.62 27.22 18.17 26.89C19.15 27.1 20.76 26.59 22.08 26.5C22.58 24.98 23.12 23.51 23.12 21.51C21.33 21.97 19.31 22.22 16.93 22.11C16.92 21.92 16.68 21.95 16.52 21.91C16.2 21.49 15.92 21.02 15.69 20.51C15.75 17.74 15.33 15.42 15.49 12.54Z"/>
  </symbol>
  <symbol id="twitter-icon" viewBox="0 0 46 40">
    <path fill-rule="evenodd" d="M45.28 10.35C44.38 10.93 43.19 11.23 42.02 11.54C42.52 13.51 42.71 15.79 42.61 18.35C42.52 18.71 42.4 19.03 42.46 19.54C42.07 19.99 42.11 20.87 41.72 21.32C41.74 22.13 41.11 22.28 41.13 23.1C40.5 24.1 39.99 25.21 39.35 26.21C38.69 27.18 38.08 28.2 37.28 29.02C36.86 29.45 36.62 30.04 36.09 30.36C35.9 30.96 35.61 31.46 35.2 31.84C34.04 33.93 31.89 35.05 30.16 36.58C29.03 37.08 28.2 37.88 27.05 38.36C26.18 39.07 24.83 39.3 23.79 39.84C23.39 39.84 22.94 39.79 22.75 39.99C21.51 39.95 20.07 40.11 19.04 39.84L17.12 39.84C15.29 39.65 13.28 39.63 11.49 39.4C9.75 39.11 8.11 38.73 6.45 38.36C5.13 37.65 3.68 37.07 2.59 36.14C2.21 35.98 1.88 35.76 1.71 35.4C1.4 35.21 0.95 35.16 0.96 34.65C0.3 34.36 -0.19 33.7 0.08 32.88C0.32 32.63 0.28 32.57 0.52 32.43C1.04 32.14 2.08 32.24 2.74 31.99C3.94 32 4.74 31.62 5.85 31.54C7.64 31.01 9.78 30.82 11.34 30.06C11.85 29.68 12.32 29.27 12.52 28.58C11.24 28.38 9.97 28.17 8.82 27.84C7.72 27.11 6.56 26.45 5.56 25.62C5.53 25.1 5.03 25.05 4.97 24.58C4.75 24.02 4.75 22.91 4.97 22.36C5.45 21.75 6.66 21.88 7.48 21.61C7.91 21.53 7.26 21.38 7.34 21.17C7.29 20.98 7.08 20.94 7.04 20.73C6.86 20.41 6.48 20.29 6.45 19.84C5.97 19.28 5.53 18.68 5.26 17.91C4.54 16.61 3.66 15.46 3.78 13.32C4.13 12.72 4.72 12.38 5.56 12.28C5.07 11.68 4.63 11.03 4.37 10.2C4.36 7.67 5.07 5.86 5.41 3.68C5.54 3.71 5.55 3.63 5.56 3.53C5.58 2.96 6.16 2.95 6.3 2.5C6.5 2.15 6.56 1.67 7.19 1.76C8.32 1.71 7.91 3.2 8.67 3.53C8.92 4.32 9.59 4.69 10.01 5.31C11.04 6.35 12.13 7.34 13.56 7.98C14.77 9 16.28 9.48 17.71 10.2C19.04 10.87 20.37 11.89 22.01 12.13C22.41 11.95 22.01 11.36 22.01 11.09C22.06 10.74 22.24 10.54 22.16 10.05C22.28 10.08 22.29 10 22.3 9.91C22.36 9.22 22.95 9.07 23.04 8.42C24.39 7.25 25.52 5.86 27.34 5.16C28.81 4.11 31.11 3.89 33.42 3.68C34.81 3.77 36.06 4 37.12 4.42C37.81 4.28 38.34 3.74 38.9 3.39C39.13 3.25 39.35 3.14 39.64 2.94C39.73 2.88 39.62 2.8 39.79 2.79C39.82 2.79 39.92 2.81 39.94 2.79C40.91 2 41.57 0.84 42.46 -0.02C42.57 -0.16 42.73 -0.25 42.91 -0.32C43.5 -0.37 43.99 -0.32 44.09 0.13C44.43 0.5 44.15 1.17 43.94 1.46C43.7 1.81 43.61 2.31 43.35 2.64C43.41 3.7 43.02 4.29 42.91 5.16C42.55 5.8 42.15 6.38 41.87 7.09L44.09 7.09C45.09 7.28 46.45 7.1 46.91 7.83C47.28 9.19 46.33 9.98 45.28 10.35ZM40.09 13.02C39.81 10.33 38.85 8.33 37.27 6.94C36.7 6.83 36.36 6.47 35.94 6.2C35.41 6.14 34.95 6.01 34.46 5.9L31.94 5.9C31.29 6.05 30.62 6.16 29.87 6.2C29.29 6.51 28.63 6.75 27.94 6.94C27.42 7.31 26.89 7.67 26.31 7.98C25.38 8.88 24.3 9.63 23.79 10.94C23.38 12.05 24.01 13.29 23.49 14.2C23.09 14.4 22.7 14.6 22.31 14.8C20.42 14.96 19.64 14 18.3 13.61C17.21 12.97 16.1 12.36 14.9 11.83C14 11 12.69 10.58 11.78 9.76C10.52 9.24 9.73 8.25 8.67 7.53C8.16 6.71 7.49 6.05 7.04 5.16C7.03 5.07 7.02 4.99 6.89 5.01C6.7 6.45 6.74 8.12 6.74 9.76C7.13 10.31 7.56 10.82 8.08 11.24C8.6 11.66 9.3 11.89 9.26 12.87C9.01 13.41 8.84 14.02 7.93 13.91C7.58 14.35 6.92 14.48 6.45 14.8C7.62 16.49 8.46 18.52 10.01 19.84C11.13 20.14 12.67 20.03 12.67 21.47C12.56 22.54 11.48 22.65 10.45 22.8C9.85 23.58 8.64 23.76 7.78 24.28C8.89 24.9 9.8 25.72 11.49 25.76C11.55 26.09 12.22 25.82 12.52 25.91C12.88 26 13.2 26.13 13.71 26.06C13.84 26.37 14.55 26.11 14.6 26.5C14.93 26.61 15.04 26.95 15.19 27.25C15.2 27.89 14.82 28.16 14.6 28.58C14.7 29.33 14.4 29.66 14.3 30.21C14.07 30.42 13.92 30.72 13.86 31.1C13.34 31.42 13.09 32.01 12.53 32.28C11.58 32.87 10.24 33.07 9.12 33.47C8.65 33.4 8.59 33.74 8.08 33.62C7.98 33.91 7.25 33.58 7.19 33.92C6.53 34.05 5.57 33.88 5.26 34.36C6.83 35.01 8.01 36.05 9.86 36.43C11.71 36.86 13.87 36.96 15.93 37.18C18.45 37.22 20.87 37.17 23.04 36.88C23.38 36.57 24.03 36.58 24.38 36.28C24.79 36.05 25.25 35.87 25.72 35.69C26.46 35.15 27.29 34.7 28.23 34.36C29.16 33.46 30.21 32.68 31.05 31.69C31.89 30.66 32.96 29.85 33.72 28.73C34.53 27.72 35.36 26.71 36.09 25.62C36.46 25.05 36.72 24.37 37.13 23.84C37.29 23.07 37.55 22.39 37.87 21.76C37.81 21.06 38.13 20.74 38.01 19.98C38.86 18.8 39.78 17.7 40.09 15.98C40.19 14.77 39.84 13.99 40.09 13.02ZM40.68 4.72C40.28 4.82 40.12 5.14 39.79 5.31C39.62 5.53 39.18 5.49 39.2 5.91C39.25 6.1 39.46 6.14 39.5 6.35C40.22 6.13 40.42 5.4 40.68 4.72ZM32.53 8.57C33.01 9.23 33.24 10.14 33.27 11.24C33.01 11.38 33.03 11.79 32.68 11.83C32.63 12.18 32.03 11.98 31.94 12.28C31.38 12.19 30.95 11.98 30.75 11.54C30.28 11.41 30.04 11.06 29.72 10.79C29.18 8.65 31.02 7.73 32.53 8.57Z"/>
  </symbol>
  <symbol id="footer-logo" viewBox="0 0 204 68">
    <path d="M38.27 42.88C38.1 37.51 37.25 32.18 37.32 26.81C37.38 22.46 38.1 17.99 36.6 13.82C36.69 13.35 36.79 12.87 36.88 12.4C37.27 10.31 30.34 11.41 29.25 13.33C28.57 13.89 28.22 14.56 28.5 15.24C28.58 15.41 28.64 15.59 28.71 15.76C27.4 22.17 25.57 28.37 23.46 34.59C22.66 36.96 21.69 39.28 20.87 41.65C19.71 39.44 18.53 37.26 17.58 34.9C14.84 28.03 12.36 21.09 9.01 14.49C9.39 11.43 2.6 11.75 1.26 14.55C-0.35 17.94 -0.14 21.35 0.39 24.98C0.99 29.06 1.09 33.08 1.14 37.2C1.24 45.15 1.86 53.09 1.98 61.04C1.27 61.83 1.05 62.8 1.8 63.79C2.12 64.22 2.52 64.55 2.94 64.88C4.75 66.33 9.94 65.1 9.93 62.34C9.9 54.1 9.31 45.87 9.09 37.63C9.07 36.82 9.05 36.01 9.04 35.21C9.15 35.5 9.27 35.78 9.38 36.07C10.66 39.28 12 42.4 13.75 45.38C15.49 48.34 16.36 51.51 17.36 54.73C16.98 55.17 16.75 55.66 16.89 56.15C16.82 56.51 17.03 56.73 17.4 56.87C18.67 57.97 21.08 57.42 22.41 56.86C22.99 56.62 23.54 56.34 24.07 56.01C24.76 55.59 25.83 54.65 25.52 53.69C25.46 53.51 25.41 53.32 25.35 53.13C26.29 50.6 26.77 47.96 27.28 45.28C27.83 42.42 28.85 39.72 29.87 37.01C29.98 38.25 30.08 39.48 30.18 40.72C30.59 45.83 30.25 50.86 30.2 55.97C30.18 57.67 30.3 59.24 30.63 60.89C30.77 61.58 31.37 64.51 31.2 64.67C29.97 65.8 30.33 67.18 31.97 67.54C33.8 67.94 36.13 67.33 37.51 66.06C39.9 63.84 38.77 60.37 38.23 57.57C37.32 52.89 38.42 47.65 38.27 42.88Z"/>
    <path d="M55 44.23C54.85 40.25 53.47 36.51 53.45 32.49C53.43 27.88 53.81 23.3 53.14 18.71C52.93 17.26 45.03 18.91 45.31 20.81C45.92 25.03 45.7 29.27 45.62 33.52C45.55 37.61 46.56 41.32 47.09 45.33C47.62 49.44 46.92 53.64 47.38 57.76C47.6 59.68 48.88 63.24 47.56 64.92C46.72 65.98 50.5 65.6 50.67 65.57C52.21 65.29 54.25 64.79 55.28 63.49C56.58 61.84 55.67 58.64 55.38 56.78C54.75 52.66 55.15 48.39 55 44.23Z"/>
    <path d="M87.66 37.59C83.53 32.02 75.88 36.03 70.53 34.51C67.78 33.73 67.75 29.97 67.75 27.72C67.76 24.87 67.52 22.25 67.2 19.43C66.97 17.32 67.16 15.19 68.7 13.62C68.98 13.33 70.41 12.95 70.32 12.94C71.02 12.82 71.67 12.79 72.45 12.76C75.55 12.62 81.68 13.22 80.49 17.72C79.96 19.74 87.68 18.58 88.24 16.45C90.67 7.25 73.68 9.02 68.87 10.29C64.45 11.47 59.57 13.98 59.32 19.09C59.2 21.53 59.87 23.85 59.97 26.26C60.09 29.04 59.58 31.82 60.55 34.5C62.71 40.46 71.59 37.65 76.1 37.99C83.79 38.56 81.5 48.93 81.6 53.75C81.65 56.33 83.96 60.61 82.02 62.77C80.83 64.09 78.06 64.17 76.44 64.3C74.81 64.44 72.04 64.93 70.95 63.38C68.97 60.55 71.13 55.78 70.71 52.53C70.47 50.68 62.58 52.34 62.88 54.63C63.56 59.89 60.08 66.92 67.68 67.82C72.56 68.4 78.06 67.5 82.68 65.97C85.07 65.18 87.29 64.08 89.17 62.38C91.24 60.5 90.56 57.69 90 55.29C88.65 49.45 91.46 42.73 87.66 37.59Z"/>
    <path d="M122.31 37.21C122.07 29.66 120.93 22.19 120.9 14.62C120.88 10.68 112.97 12.01 112.99 15.3C113.02 22.52 113.98 29.64 114.35 36.83C114.36 36.98 114.37 37.13 114.38 37.27C110.48 37.24 106.58 37.63 102.67 37.77C103.07 28.5 101.45 19.31 101.8 10.05C101.84 8.89 94.05 9.87 93.97 12.15C93.63 21.1 95.14 29.98 94.87 38.93C94.74 43.2 94.38 47.46 94.35 51.74C94.34 53.93 94.7 56.1 95.01 58.26C95.3 60.26 95.98 62.92 95.37 64.9C94.9 66.44 102.5 65.48 103.1 63.51C104.19 59.95 102.65 55.43 102.29 51.83C101.94 48.38 102.21 44.84 102.45 41.34C106.51 41.08 110.57 40.74 114.61 41.31C114.79 44.07 115.01 46.82 115.26 49.58C115.47 51.9 115.62 54.21 115.65 56.53C115.68 58.57 115.93 61.52 115.21 63.45C113.66 67.57 121.51 67.23 122.66 64.18C124.06 60.44 123.66 55.78 123.42 51.85C123.12 46.97 122.47 42.11 122.31 37.21Z"/>
    <path d="M156.17 46.16C154.3 40.64 151.43 35.81 148.94 30.57C150.94 26.67 152.98 22.77 154.8 18.79C156.47 15.17 157.7 11.15 160.96 8.61C162.11 7.71 162.06 6.81 160.45 6.7C158.7 6.58 156.33 7.09 154.92 8.19C151.94 10.5 150.06 13.31 148.51 16.72C146.65 20.82 144.72 24.85 142.69 28.87C142.54 29.17 142.39 29.46 142.24 29.76C141.26 30.39 140.67 31.28 140.96 32.29C139.38 35.42 137.76 38.53 135.96 41.51C135.37 30.45 134.05 19.39 133.66 8.31C133.57 5.77 125.72 7.35 125.83 10.41C126.31 24.15 128.27 37.85 128.4 51.59C128.37 51.62 128.34 51.65 128.31 51.69C127.7 52.3 127.93 52.67 128.41 52.89C128.41 56.39 128.29 59.89 127.99 63.4C127.05 64.89 128.92 65.68 130.16 65.68C130.22 65.68 130.29 65.68 130.35 65.68C131.83 65.68 135.6 64.98 135.79 62.95C136.17 58.75 136.29 54.55 136.25 50.37C139.43 46.93 142.03 43.11 144.36 39.1C145.88 42.06 147.33 45.04 148.34 48.26C150.06 53.74 152.94 58.78 154.6 64.29C155.69 67.9 163.52 65.76 162.44 62.19C160.78 56.69 158.03 51.6 156.17 46.16Z"/>
    <path fill-rule="evenodd" d="M198.78 40.3C198.86 44.13 198.91 47.96 199.06 51.78C199.17 54.45 200.16 59.79 198.26 62.03C197.17 63.31 195.24 63.82 193.65 64.11C193.5 64.14 189.67 64.48 190.54 63.45C192.2 61.49 191.35 56.8 191.25 54.43C191.06 49.81 190.89 45.16 190.85 40.54C188.7 40.79 186.57 41.33 184.36 41.12C181.63 40.87 177 39.66 174.26 40.84C174.36 42.46 174.44 44.09 174.46 45.73C174.55 51.28 174.47 56.83 174.46 62.38C174.46 64.54 166.63 65.63 166.63 64.48C166.64 57.47 166.81 50.45 166.5 43.44C166.24 37.39 164.66 30.98 165.76 24.95C166.76 19.46 169.66 15.62 174.87 13.59C179.38 11.84 185.01 10.97 189.84 10.78C194.61 10.6 197.36 12.36 197.78 17.28C198.24 22.58 198.32 28.02 198.57 33.34C198.6 34.01 198.61 34.68 198.64 35.35C200.44 35.19 202.76 35.23 203.18 36.89C203.61 38.59 201.08 40 198.78 40.3ZM187.36 36.51C188.5 36.53 189.62 36.47 190.73 36.36C190.52 32.35 190.1 28.36 190.11 24.35C190.11 21.92 190.7 16.21 188.28 14.61C186.54 13.45 184.57 13.88 182.63 14.23C181.27 14.48 179.08 14.35 177.92 15.11C173.57 17.94 173.02 24.44 173.34 29.1C173.51 31.61 173.74 34.1 173.94 36.59C178.27 35.68 182.79 36.4 187.36 36.51Z"/>
    <path d="M48.22 13.29C49.26 13.19 50.31 12.84 51.17 12.24C51.34 12.1 51.51 11.95 51.68 11.81C52.72 11.14 53.63 10.15 53.14 9.09C52.13 6.88 52.29 4.62 52.31 2.26C52.32 0.34 50.38 -0.23 48.75 -0.09C47.3 0.04 44.41 1.07 44.4 2.95C44.38 4.94 44.25 6.98 44.61 8.93C44.52 9.16 44.47 9.41 44.41 9.64C44.3 10.07 44.44 10.48 44.69 10.82C44.69 10.91 44.7 11 44.7 11.09C44.7 11.32 44.71 11.54 44.72 11.76C44.87 12.23 45.16 12.58 45.58 12.82C46.36 13.29 47.34 13.37 48.22 13.29Z"/>
  </symbol>
</svg>
