<svg xmlns="http://www.w3.org/2000/svg" width="46" height="40"><path fill="#231f20" fill-rule="evenodd" d="M45.3 10.3c-1 .6-2.1 1-3.3 1.2.5 2 .7 4.3.6 6.9 0 .3-.2.6-.1 1.1-.4.5-.4 1.4-.8 1.8 0 .8-.6 1-.6 1.8-.6 1-1.1 2.1-1.8 3.1-.6 1-1.2 2-2 2.8-.4.4-.7 1-1.2 1.4-.2.6-.5 1-.9 1.4-1.2 2.1-3.3 3.2-5 4.8-1.2.5-2 1.3-3.1 1.8-1 .7-2.3.9-3.3 1.4-.4 0-.9 0-1 .2-1.3 0-2.7.1-3.8-.2h-1.9l-5.6-.4-5-1C5 37.6 3.7 37 2.5 36c-.3-.1-.6-.3-.8-.7-.3-.2-.8-.2-.7-.8-.7-.2-1.2-.9-1-1.7l.5-.5c.5-.3 1.6-.2 2.2-.4 1.2 0 2-.4 3.1-.5 1.8-.5 4-.7 5.5-1.4.5-.4 1-.8 1.2-1.5a31 31 0 01-3.7-.8l-3.2-2.2c0-.5-.6-.6-.6-1-.3-.6-.3-1.7 0-2.2.5-.6 1.7-.5 2.5-.8.4 0-.2-.2-.2-.4s-.2-.3-.3-.5c-.1-.3-.5-.4-.5-.9A6 6 0 015.3 18c-.8-1.3-1.6-2.4-1.5-4.6.3-.6 1-1 1.8-1-.5-.6-1-1.3-1.2-2.1 0-2.5.7-4.3 1-6.5l.2-.2c0-.5.6-.5.7-1 .2-.4.3-.8.9-.7 1.1 0 .7 1.4 1.5 1.7.2.8.9 1.2 1.3 1.8 1 1 2.1 2 3.6 2.7 1.2 1 2.7 1.5 4.1 2.2 1.3.7 2.7 1.7 4.3 2 .4-.3 0-.8 0-1.1l.2-1 .1-.2c0-.7.6-.8.7-1.5 1.4-1.2 2.5-2.5 4.3-3.2 1.5-1 3.8-1.3 6.1-1.5 1.4 0 2.7.3 3.7.7.7-.1 1.2-.7 1.8-1l.7-.5.2-.1h.1c1-.8 1.7-2 2.6-2.8 0-.2.2-.3.4-.3.6 0 1 0 1.2.4.3.4 0 1-.2 1.4l-.5 1.1c0 1.1-.4 1.7-.5 2.6-.4.6-.8 1.2-1 1.9H44c1 .2 2.4 0 2.8.7.4 1.4-.6 2.2-1.6 2.5zM40 13a9 9 0 00-2.8-6c-.6-.2-1-.5-1.4-.8-.5 0-1-.2-1.4-.3h-2.6c-.6.1-1.3.3-2 .3l-2 .7c-.5.4-1 .8-1.6 1-1 1-2 1.7-2.5 3-.4 1.2.2 2.4-.3 3.3l-1.2.6c-1.9.2-2.7-.8-4-1.2a33 33 0 00-3.4-1.8c-.9-.8-2.2-1.2-3.1-2-1.3-.6-2-1.6-3.1-2.3L7 5.2 7 5c-.2 1.5-.2 3.1-.2 4.8l1.4 1.4c.5.5 1.2.7 1.2 1.7-.3.5-.5 1.1-1.4 1-.3.4-1 .6-1.5.9 1.2 1.7 2 3.7 3.6 5 1.1.3 2.7.2 2.7 1.7-.1 1-1.2 1.1-2.3 1.3-.6.8-1.8 1-2.6 1.5 1 .6 2 1.4 3.7 1.5 0 .3.7 0 1 .1l1.2.2c.1.3.9 0 .9.4.3.1.4.4.6.8 0 .6-.4.9-.6 1.3.1.7-.2 1-.3 1.6-.2.2-.4.5-.4.9-.6.3-.8 1-1.4 1.2-1 .6-2.3.8-3.4 1.2-.4-.1-.5.2-1 .1-.1.3-.8 0-1 .3-.6.1-1.5 0-1.8.5 1.5.6 2.7 1.6 4.6 2 1.8.5 4 .6 6 .8 2.5 0 5 0 7.1-.3.4-.3 1-.3 1.4-.6.4-.3.9-.4 1.3-.6.8-.6 1.6-1 2.5-1.3 1-1 2-1.7 2.9-2.7.8-1 1.9-1.8 2.6-3l2.4-3 1-1.9c.2-.7.4-1.4.8-2 0-.7.2-1 .1-1.8.9-1.2 1.8-2.3 2-4 .2-1.2-.2-2 0-3zm.6-8.3c-.4.1-.6.4-1 .6 0 .2-.5.2-.5.6 0 .2.3.2.3.4.7-.2 1-.9 1.2-1.6zm-8.2 3.9c.5.6.7 1.5.8 2.6-.3.2-.3.6-.6.6 0 .4-.7.2-.8.5-.5-.1-1-.3-1.1-.8-.5 0-.8-.4-1-.7-.6-2.2 1.2-3 2.7-2.2z"/></svg>