<svg xmlns="http://www.w3.org/2000/svg" viewBox="0 0 66 64" width="33" height="32" fill="#63d1bb"><path fill-rule="evenodd" d="M5.8 36.2h25V64h-25V36.2zm59.5-16.3v11.8H34.5v-15h-3.7v15H0V20c0-1.7 1.4-3.1 3.2-3.1h13.2a13 13 0 01-5.3-4.5 8.2 8.2 0 011.5-10.7A9.3 9.3 0 0119-1c2.5 0 4.7.9 6.7 2.2 2 1.3 3.6 3 5 5 .8 1.1 1.4 2.3 2 3.6l.3-.5c1.6-3.2 4-6.2 6.8-8.1C41.7-.1 44-1 46.4-1c2.3 0 4.4.9 6 2.3A7.7 7.7 0 0155.1 7c0 2.8-1.6 5.7-4.8 8l-2.8 1.7H62c1.8 0 3.2 1.4 3.2 3.1zM30 15.5c-.4-1.3-.9-2.8-1.6-4.1C27 8.7 25.1 6.4 23 5a7.3 7.3 0 00-4-1.4c-1.2 0-2.4.5-3.2 1.4-1 .8-1.4 1.9-1.4 2.9 0 .6.2 1.2.6 2 .4.6 1.2 1.4 2.4 2.2 2.3 1.4 6.3 2.8 12.5 3.4zm5.4.4c6-1.2 10-3 12.3-4.6 2.4-1.7 3-3.2 3-4.2 0-.9-.5-1.7-1.2-2.4a4.6 4.6 0 00-3-1c-1.4 0-2.8.4-4.1 1.3-1.4.9-2.7 2.2-3.8 3.8a21 21 0 00-3.2 7zm-.8 20.3h25V64h-25V36.2z"/></svg>
