<svg xmlns="http://www.w3.org/2000/svg" viewBox="0 0 224 92" width="224" height="92"><style>tspan { white-space:pre }.shp0 { fill: #000000 } .shp1 { fill: #ffffff } </style><g ><g ><g ><path class="shp0" d="M220.46 83.59C229.24 85.32 222.14 11.87 220.75 6.96C216.83 -6.17 167.4 2.68 156.39 3.53C130.95 5.5 106.01 1.61 81.17 2.78C68.76 3.36 11.46 -0.85 6.13 6.75C-3.97 21.17 0.83 58.35 3.57 76.9C-4.51 78.46 8.19 85.21 9.85 86.7C22.48 91.08 42.57 86.26 55.86 87.49C86.73 90.43 119.46 83.1 150.42 85.58C159.41 87.87 169.62 87.62 178.86 88.06C185.69 99.2 218.19 83.13 220.46 83.59C220.25 83.55 221.47 83.79 220.46 83.59Z" /></g></g><g ><g ><path class="shp1" d="M52.12 48.64C51.96 43.55 51.15 38.5 51.22 33.4C51.27 29.27 51.96 25.03 50.53 21.07C50.62 20.62 50.72 20.17 50.8 19.72C51.17 17.74 44.59 18.79 43.56 20.6C42.91 21.13 42.58 21.77 42.85 22.42C42.92 22.58 42.98 22.75 43.04 22.91C41.8 28.99 40.06 34.88 38.07 40.77C37.3 43.03 36.38 45.23 35.6 47.48C34.5 45.38 33.38 43.31 32.48 41.07C29.88 34.55 27.53 27.97 24.35 21.7C24.71 18.8 18.27 19.1 17 21.76C15.47 24.97 15.66 28.22 16.17 31.66C16.74 35.53 16.84 39.34 16.89 43.26C16.98 50.8 17.56 58.33 17.68 65.88C17.01 66.62 16.8 67.55 17.5 68.49C17.81 68.89 18.19 69.21 18.59 69.53C20.3 70.9 25.23 69.73 25.22 67.11C25.2 59.29 24.63 51.48 24.43 43.66C24.41 42.89 24.39 42.13 24.38 41.36C24.49 41.64 24.6 41.91 24.71 42.18C25.92 45.23 27.19 48.19 28.85 51.02C30.5 53.82 31.33 56.83 32.28 59.89C31.92 60.3 31.7 60.77 31.83 61.24C31.76 61.58 31.97 61.79 32.31 61.92C33.52 62.96 35.8 62.44 37.07 61.91C37.62 61.68 38.14 61.41 38.64 61.1C39.3 60.7 40.32 59.81 40.02 58.9C39.97 58.73 39.91 58.55 39.86 58.38C40.75 55.97 41.21 53.46 41.69 50.92C42.21 48.21 43.17 45.64 44.15 43.07C44.25 44.25 44.35 45.42 44.44 46.6C44.83 51.44 44.51 56.22 44.46 61.07C44.44 62.67 44.56 64.17 44.88 65.74C45 66.39 45.57 69.17 45.41 69.32C44.25 70.39 44.58 71.71 46.14 72.05C47.88 72.43 50.09 71.85 51.4 70.64C53.67 68.54 52.6 65.24 52.08 62.59C51.22 58.15 52.26 53.17 52.12 48.64Z" /><path class="shp1" d="M67.99 49.93C67.85 46.15 66.54 42.6 66.52 38.78C66.5 34.41 66.87 30.07 66.23 25.71C66.03 24.34 58.53 25.9 58.79 27.71C59.38 31.71 59.17 35.73 59.1 39.77C59.03 43.65 59.98 47.16 60.48 50.97C60.99 54.87 60.32 58.86 60.77 62.77C60.97 64.59 62.19 67.97 60.93 69.56C60.14 70.57 63.72 70.21 63.88 70.18C65.34 69.91 67.29 69.44 68.25 68.21C69.49 66.64 68.63 63.61 68.36 61.84C67.75 57.93 68.14 53.87 67.99 49.93Z" /><path class="shp1" d="M98.98 43.63C95.07 38.34 87.81 42.15 82.73 40.7C80.12 39.96 80.09 36.39 80.1 34.26C80.1 31.55 79.88 29.07 79.58 26.39C79.35 24.39 79.53 22.36 80.99 20.88C81.26 20.6 82.62 20.24 82.53 20.23C83.2 20.12 83.81 20.09 84.55 20.06C87.49 19.93 93.31 20.5 92.18 24.77C91.68 26.69 99.01 25.59 99.54 23.56C101.84 14.83 85.71 16.51 81.16 17.72C76.96 18.83 72.34 21.22 72.1 26.07C71.98 28.38 72.61 30.58 72.71 32.88C72.83 35.51 72.34 38.14 73.26 40.69C75.31 46.35 83.74 43.68 88.02 44C95.32 44.54 93.14 54.38 93.24 58.96C93.29 61.41 95.48 65.47 93.64 67.52C92.51 68.77 89.88 68.85 88.34 68.98C86.8 69.11 84.16 69.57 83.13 68.1C81.25 65.41 83.31 60.89 82.91 57.81C82.68 56.05 75.19 57.63 75.47 59.8C76.12 64.78 72.81 71.46 80.03 72.31C84.66 72.86 89.88 72.01 94.26 70.55C96.53 69.8 98.64 68.76 100.42 67.15C102.38 65.37 101.74 62.69 101.21 60.42C99.93 54.88 102.6 48.51 98.98 43.63Z" /><path class="shp1" d="M131.87 43.27C131.64 36.1 130.56 29.01 130.53 21.83C130.52 18.09 123.01 19.35 123.02 22.48C123.05 29.33 123.96 36.08 124.31 42.91C124.32 43.05 124.33 43.19 124.34 43.33C120.64 43.29 116.94 43.67 113.23 43.79C113.61 35 112.07 26.28 112.41 17.5C112.45 16.39 105.05 17.33 104.97 19.49C104.65 27.98 106.09 36.41 105.83 44.9C105.71 48.96 105.37 53 105.34 57.05C105.32 59.13 105.67 61.2 105.96 63.25C106.24 65.14 106.88 67.67 106.31 69.55C105.86 71.01 113.07 70.1 113.64 68.23C114.67 64.86 113.22 60.56 112.87 57.15C112.54 53.88 112.8 50.51 113.03 47.19C116.88 46.94 120.73 46.62 124.57 47.16C124.74 49.78 124.94 52.39 125.18 55.01C125.38 57.21 125.52 59.4 125.55 61.61C125.58 63.54 125.82 66.34 125.13 68.17C123.66 72.08 131.11 71.76 132.2 68.87C133.53 65.31 133.15 60.9 132.92 57.17C132.64 52.53 132.02 47.91 131.87 43.27Z" /><path class="shp1" d="M164 51.76C162.22 46.53 159.5 41.93 157.14 36.96C159.04 33.26 160.97 29.56 162.71 25.79C164.28 22.36 165.45 18.54 168.55 16.12C169.64 15.27 169.6 14.42 168.06 14.32C166.4 14.2 164.15 14.68 162.81 15.72C159.99 17.92 158.21 20.59 156.74 23.82C154.97 27.72 153.13 31.54 151.21 35.35C151.07 35.63 150.93 35.91 150.78 36.2C149.85 36.79 149.29 37.64 149.57 38.6C148.07 41.57 146.53 44.52 144.83 47.35C144.26 36.85 143.02 26.36 142.64 15.84C142.56 13.43 135.11 14.93 135.21 17.84C135.67 30.87 137.52 43.88 137.65 56.91C137.62 56.94 137.59 56.97 137.56 57C136.99 57.59 137.2 57.94 137.66 58.15C137.66 61.47 137.55 64.79 137.26 68.12C136.37 69.54 138.14 70.28 139.32 70.28C139.38 70.28 139.44 70.28 139.5 70.28C140.91 70.28 144.48 69.62 144.66 67.69C145.03 63.71 145.14 59.73 145.1 55.75C148.12 52.5 150.59 48.86 152.8 45.05C154.24 47.87 155.61 50.7 156.57 53.75C158.21 58.96 160.94 63.74 162.52 68.96C163.55 72.39 170.97 70.37 169.95 66.97C168.37 61.75 165.77 56.92 164 51.76Z" /><path fill-rule="evenodd" class="shp1" d="M204.43 46.21C204.51 49.83 204.55 53.46 204.7 57.09C204.8 59.63 205.74 64.7 203.94 66.82C202.91 68.04 201.07 68.52 199.57 68.8C199.43 68.82 195.79 69.15 196.62 68.17C198.2 66.31 197.38 61.85 197.29 59.61C197.11 55.23 196.95 50.81 196.91 46.43C194.87 46.67 192.85 47.18 190.75 46.98C188.16 46.73 183.76 45.59 181.16 46.71C181.26 48.25 181.33 49.79 181.36 51.35C181.44 56.62 181.37 61.88 181.36 67.15C181.36 69.2 173.92 70.23 173.92 69.14C173.93 62.49 174.1 55.83 173.81 49.18C173.55 43.43 172.05 37.35 173.1 31.63C174.05 26.42 176.8 22.77 181.75 20.85C186.03 19.19 191.37 18.36 195.95 18.19C200.48 18.01 203.1 19.69 203.49 24.35C203.92 29.38 203.99 34.54 204.23 39.59C204.26 40.23 204.28 40.87 204.3 41.5C206.01 41.35 208.21 41.38 208.61 42.96C209.02 44.58 206.62 45.92 204.43 46.21ZM193.6 42.6C194.68 42.63 195.74 42.56 196.79 42.46C196.6 38.66 196.2 34.87 196.2 31.06C196.21 28.76 196.77 23.34 194.48 21.82C192.82 20.72 190.95 21.13 189.11 21.46C187.82 21.7 185.74 21.57 184.64 22.29C180.52 24.98 179.99 31.15 180.29 35.57C180.46 37.95 180.67 40.31 180.87 42.68C184.98 41.81 189.26 42.5 193.6 42.6Z" /><path class="shp1" d="M61.56 20.56C62.55 20.47 63.54 20.13 64.36 19.57C64.52 19.43 64.68 19.29 64.85 19.16C65.83 18.52 66.69 17.59 66.23 16.58C65.27 14.48 65.42 12.34 65.44 10.1C65.45 8.28 63.61 7.73 62.06 7.87C60.69 7.99 57.94 8.97 57.93 10.75C57.92 12.64 57.8 14.58 58.14 16.43C58.05 16.65 58 16.89 57.94 17.11C57.84 17.51 57.97 17.9 58.21 18.22C58.21 18.31 58.22 18.39 58.22 18.48C58.23 18.69 58.24 18.9 58.24 19.12C58.38 19.56 58.65 19.89 59.06 20.12C59.79 20.56 60.72 20.65 61.56 20.56Z" /></g></g></g></svg>